<svg xmlns="http://www.w3.org/2000/svg" width="50" height="59" viewBox="0 0 50 59">
  <defs>
    <style>
      .cls-1 {
        fill: #145af9;
        fill-rule: evenodd;
      }
    </style>
  </defs>
  <path id="icon" class="cls-1" d="M544.277,2552H499.723a2.722,2.722,0,0,0-2.723,2.71v53.58a2.722,2.722,0,0,0,2.723,2.71h34.668a2.719,2.719,0,0,0,1.926-.79l9.885-9.84a2.678,2.678,0,0,0,.8-1.92v-43.74A2.722,2.722,0,0,0,544.277,2552Zm-7.74,53.1v-4.51h4.53Zm6.987-7.97h-8.436a2.022,2.022,0,0,0-2.027,2.02v8.39H500.476v-52.08h43.048v41.67Zm-24.237-1.5h6.576a6.183,6.183,0,0,0,6.2-6.16v-9.41a2.153,2.153,0,0,0-2.157-2.15H519.58v-4.01a3,3,0,0,1,6,0,1.738,1.738,0,0,0,3.475,0,6.474,6.474,0,0,0-12.948,0v4.01h-0.856a2.154,2.154,0,0,0-2.158,2.15v9.41A6.183,6.183,0,0,0,519.287,2595.63Zm-2.721-14.26h12.018v8.1a2.713,2.713,0,0,1-2.721,2.7h-6.576a2.713,2.713,0,0,1-2.721-2.7v-8.1Z" transform="translate(-497 -2552)"/>
</svg>
