<svg xmlns="http://www.w3.org/2000/svg" width="50" height="49" viewBox="0 0 50 49">
  <defs>
    <style>
      .cls-1 {
        fill: #fff;
        fill-rule: evenodd;
      }
    </style>
  </defs>
  <path id="Forma_1" data-name="Forma 1" class="cls-1" d="M1089,2763a25.328,25.328,0,0,0-8.96,48.89,1.507,1.507,0,0,0,1.23-.05,1.531,1.531,0,0,0,.81-0.95l4.69-15.15a1.578,1.578,0,0,0-.73-1.86,6.4,6.4,0,0,1-3.29-5.58,6.25,6.25,0,1,1,12.5,0,6.4,6.4,0,0,1-3.29,5.58,1.6,1.6,0,0,0-.74,1.85l4.69,15.16a1.569,1.569,0,0,0,1.5,1.11,1.5,1.5,0,0,0,.55-0.11A25.328,25.328,0,0,0,1089,2763Zm9.38,45.28-3.81-12.34a9.6,9.6,0,0,0,3.81-7.64,9.376,9.376,0,1,0-18.75,0,9.577,9.577,0,0,0,3.8,7.64l-3.81,12.34A21.881,21.881,0,1,1,1098.38,2808.28Z" transform="translate(-1064 -2763)"/>
</svg>
