<svg xmlns="http://www.w3.org/2000/svg" width="50" height="60" viewBox="0 0 50 60">
  <defs>
    <style>
      .cls-1 {
        fill: #fff;
        fill-rule: evenodd;
      }
    </style>
  </defs>
  <path class="cls-1" d="M524.4,2816.76a36.972,36.972,0,0,0,13.862-8.4,30.316,30.316,0,0,0,7.091-11.29c2.876-7.97,2.713-16.74,2.583-23.79l0-.05c-0.026-.57-0.043-1.18-0.053-1.86a6.294,6.294,0,0,0-5.857-6.23c-6.749-.39-11.969-2.64-16.43-7.08l-0.038-.04a3.723,3.723,0,0,0-2.55-1.02h0a3.723,3.723,0,0,0-2.55,1.02l-0.038.04c-4.461,4.44-9.681,6.69-16.43,7.08a6.294,6.294,0,0,0-5.857,6.23c-0.01.67-.027,1.28-0.053,1.86l0,0.11c-0.131,7.04-.294,15.79,2.571,23.74a30.278,30.278,0,0,0,7.091,11.29,37,37,0,0,0,13.877,8.39,5.179,5.179,0,0,0,.569.16,4.3,4.3,0,0,0,1.651,0A5.342,5.342,0,0,0,524.4,2816.76Zm-1.246-3.3a0.768,0.768,0,0,1-.3,0,0.213,0.213,0,0,1-.109-0.03c-9.678-3.45-15.85-9.19-18.87-17.57-2.641-7.33-2.491-15.36-2.359-22.45v-0.04c0.027-.61.045-1.25,0.054-1.95a2.809,2.809,0,0,1,2.606-2.77,29.576,29.576,0,0,0,10.257-2.3,26.768,26.768,0,0,0,8.358-5.74,0.316,0.316,0,0,1,.426,0,26.8,26.8,0,0,0,8.359,5.74,29.576,29.576,0,0,0,10.257,2.3,2.806,2.806,0,0,1,2.605,2.77c0.01,0.71.028,1.34,0.055,1.95,0.132,7.1.278,15.14-2.37,22.48-3.022,8.38-9.191,14.13-18.859,17.58A0.213,0.213,0,0,1,523.153,2813.46ZM523,2772.05A14.954,14.954,0,1,0,537.629,2787,14.81,14.81,0,0,0,523,2772.05Zm0,26.38A11.433,11.433,0,1,1,534.185,2787,11.323,11.323,0,0,1,523,2798.43Zm4.2-16.07-6.794,6.94-1.844-1.88a1.691,1.691,0,0,0-2.435,0,1.788,1.788,0,0,0,0,2.49l3.062,3.13a1.708,1.708,0,0,0,2.435,0l8.012-8.19a1.79,1.79,0,0,0,0-2.49A1.692,1.692,0,0,0,527.205,2782.36Z" transform="translate(-498 -2757)"/>
</svg>
