<svg xmlns="http://www.w3.org/2000/svg" width="50" height="51" viewBox="0 0 50 51">
  <defs>
    <style>
      .cls-1 {
        fill: #fff;
        fill-rule: evenodd;
      }
    </style>
  </defs>
  <path id="icon" class="cls-1" d="M1110.03,2998.8a20.38,20.38,0,1,0-34.06,0l-7.97,11.72,9.12-1.71,1.7,9.19,7.52-11.05a20.191,20.191,0,0,0,13.32,0l7.52,11.05,1.7-9.19,9.12,1.71Zm-29.6,11.52-0.93-5.02-4.97.94,3.36-4.94a20.358,20.358,0,0,0,5.66,4.43Zm12.57-5.25a17.531,17.531,0,1,1,17.39-17.53A17.477,17.477,0,0,1,1093,3005.07Zm13.5,0.23-0.93,5.02-3.12-4.59a20.358,20.358,0,0,0,5.66-4.43l3.36,4.94Zm-17.13-13.25-4.85-4.89-2.11,2.13,6.96,7.01,14.22-14.33-2.11-2.13Z" transform="translate(-1068 -2967)"/>
</svg>
