<svg xmlns="http://www.w3.org/2000/svg" width="50" height="48" viewBox="0 0 50 48">
  <metadata><?xpacket begin="﻿" id="W5M0MpCehiHzreSzNTczkc9d"?>
<x:xmpmeta xmlns:x="adobe:ns:meta/" x:xmptk="Adobe XMP Core 5.6-c138 79.159824, 2016/09/14-01:09:01        ">
   <rdf:RDF xmlns:rdf="http://www.w3.org/1999/02/22-rdf-syntax-ns#">
      <rdf:Description rdf:about=""/>
   </rdf:RDF>
</x:xmpmeta>
                                                                                                    
                                                                                                    
                                                                                                    
                                                                                                    
                                                                                                    
                                                                                                    
                                                                                                    
                                                                                                    
                                                                                                    
                                                                                                    
                                                                                                    
                                                                                                    
                                                                                                    
                                                                                                    
                                                                                                    
                                                                                                    
                                                                                                    
                                                                                                    
                                                                                                    
                                                                                                    
                           
<?xpacket end="w"?></metadata>
<defs>
    <style>
      .cls-1 {
        fill: #fff;
        fill-rule: evenodd;
      }
    </style>
  </defs>
  <path id="icon" class="cls-1" d="M1089,2762.99a24.745,24.745,0,0,0-8.96,47.91,1.59,1.59,0,0,0,1.23-.05,1.539,1.539,0,0,0,.81-0.94l4.69-14.84a1.526,1.526,0,0,0-.73-1.82,6.26,6.26,0,1,1,5.92-.01,1.547,1.547,0,0,0-.73,1.82l4.69,14.85a1.553,1.553,0,0,0,.81.93,1.449,1.449,0,0,0,.68.16,1.785,1.785,0,0,0,.56-0.1A24.747,24.747,0,0,0,1089,2762.99Zm9.39,44.36-3.82-12.09a9.38,9.38,0,1,0-11.14,0l-3.81,12.09A21.876,21.876,0,1,1,1098.39,2807.35Z" transform="translate(-1064 -2763)"/>
</svg>
