<svg xmlns="http://www.w3.org/2000/svg" width="50" height="50" viewBox="0 0 50 50">
  <metadata><?xpacket begin="﻿" id="W5M0MpCehiHzreSzNTczkc9d"?>
<x:xmpmeta xmlns:x="adobe:ns:meta/" x:xmptk="Adobe XMP Core 5.6-c138 79.159824, 2016/09/14-01:09:01        ">
   <rdf:RDF xmlns:rdf="http://www.w3.org/1999/02/22-rdf-syntax-ns#">
      <rdf:Description rdf:about=""/>
   </rdf:RDF>
</x:xmpmeta>
                                                                                                    
                                                                                                    
                                                                                                    
                                                                                                    
                                                                                                    
                                                                                                    
                                                                                                    
                                                                                                    
                                                                                                    
                                                                                                    
                                                                                                    
                                                                                                    
                                                                                                    
                                                                                                    
                                                                                                    
                                                                                                    
                                                                                                    
                                                                                                    
                                                                                                    
                                                                                                    
                           
<?xpacket end="w"?></metadata>
<defs>
    <style>
      .cls-1 {
        fill: #fff;
        fill-rule: evenodd;
      }
    </style>
  </defs>
  <path id="icon" class="cls-1" d="M1105.5,2578.97v-13.25l-8.73-8.72H1068v50h37.5v-0.09A14.056,14.056,0,0,0,1105.5,2578.97Zm-9.38-18.2,5.61,5.6h-5.61v-5.6Zm-24.99,43.1v-43.75H1093v9.38h9.38v9.47a14.054,14.054,0,0,0-11.69,9.28h-13.31a3.062,3.062,0,0,0-3.13,3.12v9.38h18a13.908,13.908,0,0,0,2.86,3.12h-23.98Zm32.81,0a10.935,10.935,0,1,1,10.93-10.93A10.947,10.947,0,0,1,1103.94,2603.87Zm-17.19-31.25a6.25,6.25,0,1,1-6.25,6.25A6.252,6.252,0,0,1,1086.75,2572.62Zm22.12,18.12a6.625,6.625,0,0,0-.87-3.53,5,5,0,0,0-8.13,0,6.535,6.535,0,0,0-.87,3.53c0,0.22.01,0.43,0.02,0.63h-1.33v7.82h12.5v-7.82h-1.34C1108.86,2591.17,1108.87,2590.96,1108.87,2590.74Zm-3.15.63h-3.57q-0.03-.3-0.03-0.63a3.836,3.836,0,0,1,.4-1.88,1.946,1.946,0,0,1,2.83,0,3.753,3.753,0,0,1,.4,1.88C1105.75,2590.96,1105.73,2591.17,1105.72,2591.37Z" transform="translate(-1068 -2557)"/>
</svg>
