<svg xmlns="http://www.w3.org/2000/svg" width="50" height="51" viewBox="0 0 50 51">
  <metadata><?xpacket begin="﻿" id="W5M0MpCehiHzreSzNTczkc9d"?>
<x:xmpmeta xmlns:x="adobe:ns:meta/" x:xmptk="Adobe XMP Core 5.6-c138 79.159824, 2016/09/14-01:09:01        ">
   <rdf:RDF xmlns:rdf="http://www.w3.org/1999/02/22-rdf-syntax-ns#">
      <rdf:Description rdf:about=""/>
   </rdf:RDF>
</x:xmpmeta>
                                                                                                    
                                                                                                    
                                                                                                    
                                                                                                    
                                                                                                    
                                                                                                    
                                                                                                    
                                                                                                    
                                                                                                    
                                                                                                    
                                                                                                    
                                                                                                    
                                                                                                    
                                                                                                    
                                                                                                    
                                                                                                    
                                                                                                    
                                                                                                    
                                                                                                    
                                                                                                    
                           
<?xpacket end="w"?></metadata>
<defs>
    <style>
      .cls-1 {
        fill: #fff;
        fill-rule: evenodd;
      }
    </style>
  </defs>
  <path id="icon" class="cls-1" d="M543.724,2982.03a21.4,21.4,0,0,0-41.421-.01,5.3,5.3,0,0,0-4.3,5.21v5.97a5.323,5.323,0,0,0,3.567,5.02v2.49a13.572,13.572,0,0,0,13.514,13.6h1.663a4.378,4.378,0,0,0,4.03,2.69h4.45a4.4,4.4,0,0,0,0-8.8h-4.45a4.38,4.38,0,0,0-4.03,2.69h-1.663a10.162,10.162,0,0,1-10.117-10.18v-3.92a1.707,1.707,0,0,0-1.7-1.71,1.874,1.874,0,0,1-1.869-1.88v-5.97a1.873,1.873,0,0,1,1.861-1.88h0.409a1.7,1.7,0,0,0,1.663-1.36,18.012,18.012,0,0,1,35.358-.01,1.7,1.7,0,0,0,1.665,1.37h0.381a1.874,1.874,0,0,1,1.869,1.88v5.97a1.874,1.874,0,0,1-1.869,1.88,1.71,1.71,0,0,0,0,3.42,5.29,5.29,0,0,0,5.266-5.3v-5.97A5.289,5.289,0,0,0,543.724,2982.03Zm-22.95,29.59h4.45a0.98,0.98,0,0,1,0,1.96h-4.45A0.98,0.98,0,0,1,520.774,3011.62ZM523,2974.21a16.005,16.005,0,1,0,15.907,16A15.973,15.973,0,0,0,523,2974.21Zm0,28.59a12.585,12.585,0,1,1,12.51-12.59A12.565,12.565,0,0,1,523,3002.8Z" transform="translate(-498 -2966)"/>
</svg>
