<svg 
 xmlns="http://www.w3.org/2000/svg"
 xmlns:xlink="http://www.w3.org/1999/xlink"
 width="17px" height="39px">
<path fill-rule="evenodd"  fill="rgb(24, 93, 255)"
 d="M16.814,27.219 C16.584,27.429 16.231,27.408 16.026,27.173 L12.230,22.731 C12.049,23.247 11.859,23.763 11.634,24.283 C11.546,24.490 11.347,24.624 11.125,24.625 L5.822,24.625 C5.601,24.624 5.402,24.490 5.313,24.283 C5.096,23.779 4.907,23.279 4.733,22.779 L0.981,27.177 L0.953,27.205 C0.848,27.314 0.704,27.375 0.554,27.374 C0.246,27.373 -0.003,27.117 -0.001,26.802 L-0.001,19.498 C-0.001,19.356 0.051,19.220 0.144,19.115 L3.447,15.378 C3.492,9.983 5.079,4.720 8.012,0.234 C8.046,0.187 8.086,0.146 8.132,0.112 C8.380,-0.075 8.730,-0.020 8.912,0.234 C11.833,4.696 13.422,9.930 13.485,15.298 L16.855,19.111 C16.948,19.216 17.000,19.352 17.001,19.494 L17.001,26.798 C16.999,26.959 16.932,27.112 16.814,27.219 ZM3.502,16.983 L1.103,19.699 L1.103,25.262 L4.315,21.497 C3.893,20.025 3.621,18.512 3.502,16.983 ZM8.454,1.612 C6.900,4.144 2.027,13.355 6.178,23.472 L10.747,23.472 C14.906,13.339 10.025,4.144 8.454,1.612 ZM15.876,19.699 L13.422,16.926 C13.307,18.458 13.037,19.974 12.617,21.449 L15.876,25.262 L15.876,19.699 ZM8.458,12.879 C7.801,12.879 7.171,12.613 6.706,12.138 C5.738,11.150 5.738,9.547 6.706,8.559 C7.673,7.570 9.242,7.569 10.209,8.558 C11.177,9.546 11.177,11.149 10.210,12.137 C9.747,12.614 9.116,12.881 8.458,12.879 ZM8.462,8.957 C7.702,8.957 7.085,9.587 7.085,10.363 L7.101,10.380 C7.101,11.148 7.710,11.770 8.462,11.771 C9.219,11.761 9.830,11.137 9.839,10.363 C9.839,9.587 9.223,8.957 8.462,8.957 ZM4.958,25.839 C5.268,25.841 5.517,26.099 5.515,26.415 L5.515,33.897 C5.514,34.048 5.454,34.193 5.349,34.300 C5.233,34.432 5.063,34.500 4.890,34.486 C4.583,34.461 4.354,34.186 4.378,33.873 L4.394,26.407 C4.396,26.091 4.649,25.836 4.958,25.839 ZM8.462,29.241 C8.464,29.241 8.466,29.241 8.467,29.241 C8.775,29.254 9.015,29.519 9.003,29.833 L9.003,37.315 C9.026,37.408 9.026,37.505 9.003,37.598 C8.926,37.903 8.622,38.087 8.324,38.009 C8.025,37.931 7.845,37.620 7.922,37.315 L7.906,29.809 C7.907,29.496 8.155,29.242 8.462,29.241 ZM11.931,25.882 C12.238,25.858 12.506,26.093 12.530,26.407 L12.542,33.877 C12.544,33.906 12.544,33.935 12.542,33.964 C12.518,34.278 12.250,34.513 11.943,34.489 C11.635,34.465 11.405,34.190 11.429,33.877 L11.429,26.395 L11.417,26.407 C11.439,26.127 11.657,25.904 11.931,25.882 Z"/>
</svg>