<svg 
 xmlns="http://www.w3.org/2000/svg"
 xmlns:xlink="http://www.w3.org/1999/xlink"
 width="56px" height="67px">
<defs>
<linearGradient id="PSgrad_0" x1="0%" x2="100%" y1="0%" y2="0%">
  <stop offset="0%" stop-color="rgb(23,100,227)" stop-opacity="1" />
  <stop offset="100%" stop-color="rgb(2,217,245)" stop-opacity="1" />
</linearGradient>

</defs>
<path fill-rule="evenodd"  fill="url(#PSgrad_0)"
  d="M932.4,1963.32a1.294,1.294,0,0,0-1.685-.73,1.329,1.329,0,0,0-.716,1.72l0.016,0.04a1.294,1.294,0,0,0,1.2.82,1.373,1.373,0,0,0,.485-0.09,1.329,1.329,0,0,0,.716-1.72Zm5.833-42.77c-13.576-.31-20.774-4.9-23.239-6.85a3.2,3.2,0,0,0-3.988,0c-2.465,1.95-9.662,6.54-23.239,6.85a2.875,2.875,0,0,0-2.767,2.89v13.58a48.034,48.034,0,0,0,6.807,24.69,46.56,46.56,0,0,0,18.447,17.43c0.245,0.13.491,0.25,0.741,0.38a4.428,4.428,0,0,0,4.01,0c0.249-.13.5-0.25,0.741-0.38a46.225,46.225,0,0,0,13.473-10.59,1.345,1.345,0,0,0-.1-1.87,1.286,1.286,0,0,0-1.828.11,43.551,43.551,0,0,1-12.718,10c-0.238.12-.478,0.24-0.722,0.37a1.875,1.875,0,0,1-1.695,0c-0.243-.13-0.483-0.25-0.722-0.37a44.542,44.542,0,0,1-23.841-39.77v-13.58a0.243,0.243,0,0,1,.237-0.25c14.349-.33,22.1-5.29,24.77-7.41a0.644,0.644,0,0,1,.808,0c2.668,2.12,10.422,7.08,24.77,7.41a0.242,0.242,0,0,1,.237.25v13.58a45.505,45.505,0,0,1-5.615,21.9,1.337,1.337,0,0,0,.5,1.8,1.286,1.286,0,0,0,1.763-.51A48.174,48.174,0,0,0,941,1937.02v-13.58A2.876,2.876,0,0,0,938.233,1920.55Zm-10.093,10.1c-7.85-.18-11.982-2.81-13.394-3.93a2.413,2.413,0,0,0-3,0l-0.166.14a11.866,11.866,0,0,1-1.631,1.05,1.336,1.336,0,0,0-.457,1.81,1.281,1.281,0,0,0,1.773.47,13.379,13.379,0,0,0,1.914-1.26l0.071-.05c1.668,1.29,6.227,4.13,14.457,4.4v7.63a26.444,26.444,0,0,1-1.132,7.68v-4.26a1.307,1.307,0,0,0-1.3-1.32h-1.862c-0.578-5.71-4.858-10.16-10.037-10.16s-9.46,4.45-10.038,10.16h-2.059a1.307,1.307,0,0,0-1.295,1.32v4.48a26.485,26.485,0,0,1-1.2-7.9v-7.63h0.182a11.9,11.9,0,0,0,1.929-.16,1.321,1.321,0,0,0-.337-2.62,10.3,10.3,0,0,1-1.641.14c-0.156,0-.342,0-0.571.01a2.244,2.244,0,0,0-2.151,2.25v8.01a28.918,28.918,0,0,0,4.093,14.85,28.06,28.06,0,0,0,11.094,10.48c0.146,0.07.293,0.15,0.441,0.22a2.99,2.99,0,0,0,1.265.34h0.181a3.078,3.078,0,0,0,1.419-.34l0.192-.1,0.249-.12a27.979,27.979,0,0,0,11.258-10.76,1.63,1.63,0,0,0,.1-0.21,28.938,28.938,0,0,0,3.808-14.36v-8.01A2.245,2.245,0,0,0,928.14,1930.65Zm-14.764,4.84c3.763,0,6.889,3.27,7.432,7.52h-1.383c-0.516-3.48-3.032-6.12-6.049-6.12s-5.533,2.64-6.049,6.12h-1.383C906.487,1938.76,909.613,1935.49,913.376,1935.49Zm3.413,7.52h-6.825c0.437-1.99,1.822-3.48,3.412-3.48S916.352,1941.02,916.789,1943.01Zm7.192,11.42-0.033.06c-0.137.22-.278,0.45-0.422,0.67-0.015.02-.03,0.05-0.045,0.07-0.143.22-.289,0.43-0.438,0.65-0.024.03-.047,0.07-0.071,0.1-0.14.2-.283,0.4-0.428,0.59-0.04.05-.081,0.11-0.121,0.16-0.122.16-.245,0.32-0.371,0.48-0.071.09-.144,0.17-0.216,0.26s-0.164.2-.248,0.3c-0.124.15-.25,0.29-0.378,0.44l-0.083.09a25.142,25.142,0,0,1-7.2,5.58c-0.139.08-.28,0.15-0.423,0.22a0.573,0.573,0,0,1-.256.06,0.491,0.491,0,0,1-.234-0.06l-0.193-.09c-0.079-.04-0.159-0.08-0.238-0.13a25.3,25.3,0,0,1-10.012-9.42v-8.81h21.408v8.78Zm-16.929-23.95-0.015-.04a1.286,1.286,0,0,0-1.686-.73,1.328,1.328,0,0,0-.715,1.72l0.015,0.04a1.3,1.3,0,0,0,1.2.82,1.364,1.364,0,0,0,.484-0.09A1.336,1.336,0,0,0,907.052,1930.48Zm6.26,16.89a7.476,7.476,0,1,0,7.331,7.47A7.41,7.41,0,0,0,913.312,1947.37Zm4.581,8.72c-0.022.08-.045,0.16-0.07,0.24-0.009.03-.019,0.06-0.028,0.09-0.023.06-.047,0.13-0.073,0.2a0.674,0.674,0,0,0-.028.07c-0.036.09-.073,0.17-0.113,0.26l-0.018.03c-0.036.08-.073,0.15-0.112,0.22-0.014.02-.027,0.05-0.042,0.07-0.035.06-.071,0.12-0.109,0.18a0.371,0.371,0,0,1-.04.07c-0.05.07-.1,0.15-0.158,0.23l-0.028.03c-0.047.06-.095,0.12-0.145,0.18a0.379,0.379,0,0,1-.055.07c-0.046.05-.094,0.11-0.143,0.16a0.229,0.229,0,0,0-.047.05c-0.064.06-.131,0.13-0.2,0.19a0.149,0.149,0,0,0-.039.04,1.71,1.71,0,0,1-.173.14l-0.066.06c-0.056.04-.113,0.08-0.172,0.13a0.2,0.2,0,0,0-.053.04c-0.076.05-.153,0.1-0.232,0.15l-0.048.03a2.047,2.047,0,0,0-.2.11,0.256,0.256,0,0,0-.074.04l-0.2.09-0.055.03c-0.086.03-.172,0.07-0.261,0.1-0.018.01-.037,0.01-0.056,0.02a1.723,1.723,0,0,1-.214.07,0.064,0.064,0,0,1-.041.01v-0.74a1.295,1.295,0,1,0-2.589,0v0.74a0.063,0.063,0,0,1-.041-0.01,1.657,1.657,0,0,1-.213-0.07c-0.02-.01-0.039-0.01-0.058-0.02-0.088-.03-0.174-0.07-0.259-0.1l-0.059-.03-0.2-.09a0.294,0.294,0,0,0-.076-0.04c-0.065-.04-0.129-0.07-0.192-0.11l-0.052-.03c-0.078-.05-0.155-0.1-0.23-0.15-0.019-.02-0.038-0.03-0.057-0.05l-0.168-.12-0.069-.06a1.78,1.78,0,0,1-.168-0.14c-0.014-.01-0.029-0.03-0.043-0.04a2.494,2.494,0,0,1-.2-0.19l-0.051-.06-0.139-.15a0.43,0.43,0,0,1-.057-0.07,2.053,2.053,0,0,1-.141-0.17c-0.01-.02-0.021-0.03-0.032-0.05-0.055-.07-0.106-0.15-0.157-0.22-0.014-.02-0.027-0.05-0.041-0.07-0.037-.06-0.073-0.12-0.107-0.18-0.015-.02-0.029-0.05-0.044-0.07-0.038-.07-0.074-0.14-0.109-0.21a0.147,0.147,0,0,0-.02-0.04c-0.04-.09-0.077-0.17-0.113-0.26a0.7,0.7,0,0,1-.029-0.08c-0.025-.06-0.049-0.13-0.071-0.19-0.01-.03-0.02-0.06-0.028-0.09-0.026-.08-0.049-0.16-0.071-0.24,0-.01,0-0.02-0.008-0.03h0.826a1.32,1.32,0,0,0,0-2.64h-0.767c0.026-.09.056-0.18,0.087-0.26,0.009-.03.019-0.05,0.029-0.08q0.036-.09.075-0.18l0.037-.09q0.042-.09.087-0.18c0.011-.02.022-0.04,0.034-0.06,0.042-.08.086-0.16,0.133-0.24a0.144,0.144,0,0,0,.021-0.04c0.04-.06.082-0.13,0.125-0.19,0.016-.02.032-0.05,0.048-0.07,0.038-.05.076-0.1,0.116-0.16l0.05-.06c0.049-.06.1-0.12,0.152-0.18l0.022-.03c0.06-.07.122-0.13,0.185-0.2,0.017-.01.034-0.03,0.051-0.04a1.725,1.725,0,0,1,.146-0.14l0.065-.06c0.051-.04.1-0.09,0.156-0.13,0.018-.01.036-0.03,0.054-0.04a2.48,2.48,0,0,1,.218-0.16c0.01-.01.022-0.01,0.032-0.02a2.052,2.052,0,0,1,.194-0.13,0.265,0.265,0,0,0,.073-0.04l0.17-.09,0.073-.04a1.893,1.893,0,0,1,.215-0.1c0.01-.01.02-0.01,0.03-0.02,0.083-.03.168-0.07,0.253-0.1,0.023-.01.046-0.01,0.069-0.02l0.194-.06c0.014-.01.028-0.01,0.042-0.02v0.75a1.3,1.3,0,1,0,2.59,0v-0.75l0.042,0.02,0.194,0.06c0.022,0.01.045,0.01,0.068,0.02,0.086,0.03.17,0.07,0.254,0.1,0.009,0.01.019,0.01,0.028,0.02a1.906,1.906,0,0,1,.216.1,0.251,0.251,0,0,1,.073.04l0.171,0.09a0.26,0.26,0,0,0,.072.04,1.931,1.931,0,0,1,.194.13c0.011,0.01.022,0.01,0.032,0.02a2.339,2.339,0,0,1,.218.16c0.019,0.01.037,0.03,0.055,0.04,0.052,0.04.1,0.09,0.155,0.13l0.065,0.06a1.586,1.586,0,0,1,.146.14c0.017,0.01.035,0.03,0.051,0.04,0.063,0.07.126,0.13,0.186,0.2l0.021,0.03c0.052,0.06.1,0.12,0.152,0.18l0.05,0.06c0.039,0.06.078,0.11,0.116,0.16,0.016,0.02.032,0.05,0.048,0.07,0.043,0.06.084,0.13,0.124,0.19l0.023,0.04c0.046,0.08.09,0.16,0.133,0.24l0.033,0.06q0.045,0.09.087,0.18c0.013,0.03.025,0.06,0.037,0.09q0.041,0.09.075,0.18c0.01,0.03.02,0.05,0.029,0.08,0.032,0.08.061,0.17,0.088,0.26h-0.837a1.32,1.32,0,0,0,0,2.64H917.9C917.9,1956.07,917.9,1956.08,917.893,1956.09Z" transform="translate(-885 -1913.03)"/>
</svg>
