<svg 
 xmlns="http://www.w3.org/2000/svg"
 xmlns:xlink="http://www.w3.org/1999/xlink"
 width="63px" height="54px">
<defs>
<linearGradient id="PSgrad_0" x1="0%" x2="100%" y1="0%" y2="0%">
  <stop offset="0%" stop-color="rgb(23,100,227)" stop-opacity="1" />
  <stop offset="100%" stop-color="rgb(2,217,245)" stop-opacity="1" />
</linearGradient>

</defs>
<path fill-rule="evenodd"  fill="url(#PSgrad_0)"
d="M941.9,2102.69v-30.11a5.236,5.236,0,0,0-5.25-5.2v-7.27a3.128,3.128,0,0,0-3.15-3.11H908.3a3.128,3.128,0,0,0-3.15,3.11v3.12H891.5a3.137,3.137,0,0,0-3.15,3.12v1.03a5.236,5.236,0,0,0-5.25,5.2v30.11a2.089,2.089,0,0,0-2.1,2.08v1.04a5.227,5.227,0,0,0,5.25,5.19h52.5a5.228,5.228,0,0,0,5.25-5.19v-1.04A2.089,2.089,0,0,0,941.9,2102.69Zm-34.65-42.58a1.039,1.039,0,0,1,1.05-1.03h25.2a1.039,1.039,0,0,1,1.05,1.03v16.62a1.048,1.048,0,0,1-1.05,1.04h-4.2a1.071,1.071,0,0,0-.742.3l-4.508,4.46v-3.72a1.041,1.041,0,0,0-1.05-1.04h-3.15v-11.42a3.137,3.137,0,0,0-3.15-3.12h-9.45v-3.12Zm-16.8,6.24a1.041,1.041,0,0,1,1.05-1.04h25.2a1.041,1.041,0,0,1,1.05,1.04v16.61a1.048,1.048,0,0,1-1.05,1.04H906.2a1.041,1.041,0,0,0-1.05,1.04v3.72l-4.508-4.46a1.073,1.073,0,0,0-.742-0.3h-8.4a1.048,1.048,0,0,1-1.05-1.04v-16.61Zm-5.25,6.23a3.137,3.137,0,0,1,3.15-3.12v13.5a3.137,3.137,0,0,0,3.15,3.12h7.965l5.993,5.92a1.038,1.038,0,0,0,.742.31,1.1,1.1,0,0,0,.4-0.08,1.039,1.039,0,0,0,.648-0.96v-5.19h9.45a3.137,3.137,0,0,0,3.15-3.12v-3.11h2.1v5.19a1.039,1.039,0,0,0,.648.96,1.1,1.1,0,0,0,.4.08,1.039,1.039,0,0,0,.742-0.31l5.993-5.92H933.5a3.137,3.137,0,0,0,3.15-3.12v-7.27a3.137,3.137,0,0,1,3.15,3.12v30.11H885.2v-30.11Zm56.7,33.23a3.128,3.128,0,0,1-3.15,3.11h-52.5a3.128,3.128,0,0,1-3.15-3.11v-1.04h24.15a2.089,2.089,0,0,0,2.1,2.08h6.3a2.089,2.089,0,0,0,2.1-2.08H941.9v1.04Zm-47.25-36.35h18.9v2.08h-18.9v-2.08Zm0,4.16h18.9v2.07h-18.9v-2.07Zm0,4.15h18.9v2.08h-18.9v-2.08Zm27.3-14.54h8.4v2.08h-8.4v-2.08Zm0,4.15h8.4v2.08h-8.4v-2.08Zm0,4.16h8.4v2.08h-8.4v-2.08Zm13.65,16.61v10.39H890.45v-10.39h-2.1v10.39a2.089,2.089,0,0,0,2.1,2.08H935.6a2.089,2.089,0,0,0,2.1-2.08v-10.39h-2.1Z" transform="translate(-881 -2057)"/>
</svg>
