<svg 
 xmlns="http://www.w3.org/2000/svg"
 xmlns:xlink="http://www.w3.org/1999/xlink"
 width="66px" height="66px">
<defs>
<linearGradient id="PSgrad_0" x1="0%" x2="100%" y1="0%" y2="0%">
  <stop offset="0%" stop-color="rgb(23,100,227)" stop-opacity="1" />
  <stop offset="100%" stop-color="rgb(2,217,245)" stop-opacity="1" />
</linearGradient>

</defs>
<path fill-rule="evenodd"  fill="url(#PSgrad_0)"
 d="M65.193,37.354 L61.217,38.470 C60.962,39.799 60.613,41.108 60.173,42.387 L63.050,45.334 C63.366,45.658 63.452,46.144 63.267,46.558 C62.337,48.631 61.197,50.602 59.864,52.442 C59.598,52.810 59.134,52.977 58.694,52.864 L54.706,51.843 C53.819,52.863 52.862,53.821 51.842,54.707 L52.863,58.695 C52.976,59.135 52.808,59.599 52.441,59.865 C50.601,61.197 48.630,62.337 46.557,63.267 C46.143,63.452 45.658,63.366 45.333,63.050 L42.386,60.172 C41.107,60.613 39.798,60.962 38.469,61.218 L37.353,65.193 C37.219,65.670 36.784,66.000 36.288,66.000 L29.710,66.000 C29.215,66.000 28.779,65.670 28.646,65.193 L27.529,61.217 C26.201,60.962 24.892,60.613 23.612,60.172 L20.666,63.050 C20.341,63.366 19.856,63.452 19.442,63.267 C17.369,62.337 15.397,61.197 13.558,59.864 C13.190,59.597 13.023,59.134 13.135,58.695 L14.157,54.706 C13.136,53.820 12.179,52.863 11.292,51.842 L7.304,52.863 C6.865,52.976 6.401,52.809 6.135,52.441 C4.802,50.602 3.662,48.630 2.733,46.557 C2.547,46.143 2.633,45.658 2.950,45.333 L5.827,42.386 C5.386,41.107 5.038,39.798 4.783,38.469 L0.807,37.353 C0.330,37.219 0.000,36.784 0.000,36.288 L0.000,29.710 C0.000,29.214 0.330,28.780 0.807,28.645 L4.783,27.529 C5.038,26.200 5.387,24.892 5.827,23.612 L2.950,20.666 C2.633,20.341 2.547,19.855 2.733,19.442 C3.663,17.369 4.803,15.397 6.136,13.557 C6.401,13.188 6.866,13.020 7.305,13.135 L11.293,14.157 C12.180,13.136 13.137,12.179 14.158,11.292 L13.136,7.304 C13.024,6.864 13.191,6.401 13.559,6.135 C15.398,4.802 17.370,3.662 19.443,2.733 C19.857,2.545 20.343,2.632 20.667,2.950 L23.613,5.827 C24.892,5.387 26.201,5.037 27.529,4.783 L28.646,0.806 C28.780,0.329 29.215,-0.000 29.710,-0.000 L36.290,-0.000 C36.785,-0.000 37.220,0.329 37.354,0.806 L38.471,4.783 C39.799,5.037 41.108,5.387 42.388,5.827 L45.334,2.950 C45.658,2.632 46.144,2.545 46.558,2.733 C48.631,3.662 50.603,4.803 52.442,6.136 C52.810,6.402 52.977,6.866 52.865,7.305 L51.843,11.293 C52.864,12.180 53.821,13.137 54.707,14.158 L58.696,13.136 C59.135,13.022 59.600,13.190 59.865,13.558 C61.197,15.398 62.337,17.370 63.267,19.442 C63.453,19.857 63.367,20.342 63.050,20.667 L60.173,23.613 C60.613,24.892 60.962,26.201 61.217,27.529 L65.193,28.645 C65.670,28.780 66.000,29.215 65.999,29.710 L65.999,36.290 C66.000,36.785 65.670,37.220 65.193,37.354 ZM63.788,30.548 L59.952,29.470 C59.540,29.355 59.231,29.011 59.161,28.588 C58.884,26.929 58.450,25.300 57.863,23.722 C57.713,23.321 57.808,22.870 58.107,22.564 L60.935,19.668 C60.236,18.206 59.425,16.802 58.506,15.467 L54.585,16.471 C54.170,16.579 53.730,16.435 53.458,16.104 C52.386,14.807 51.193,13.614 49.896,12.541 C49.566,12.269 49.423,11.830 49.529,11.415 L50.534,7.494 C49.199,6.576 47.794,5.764 46.333,5.065 L43.437,7.892 C43.131,8.193 42.679,8.288 42.278,8.137 C40.701,7.550 39.071,7.115 37.411,6.839 C36.989,6.768 36.645,6.460 36.529,6.047 L35.452,2.211 L30.548,2.211 L29.470,6.047 C29.355,6.460 29.011,6.768 28.588,6.839 C26.929,7.115 25.299,7.550 23.722,8.136 C23.322,8.288 22.869,8.193 22.564,7.892 L19.668,5.065 C18.207,5.763 16.802,6.575 15.467,7.493 L16.471,11.414 C16.577,11.829 16.434,12.268 16.104,12.541 C14.807,13.613 13.614,14.806 12.541,16.103 C12.269,16.433 11.830,16.576 11.415,16.470 L7.494,15.466 C6.576,16.801 5.764,18.205 5.065,19.667 L7.893,22.563 C8.192,22.868 8.287,23.320 8.137,23.721 C7.550,25.298 7.115,26.928 6.839,28.588 C6.768,29.011 6.460,29.355 6.047,29.470 L2.211,30.548 L2.211,35.451 L6.047,36.528 C6.460,36.644 6.768,36.987 6.839,37.410 C7.115,39.070 7.550,40.700 8.137,42.277 C8.287,42.678 8.192,43.129 7.893,43.436 L5.065,46.331 C5.764,47.793 6.575,49.198 7.493,50.532 L11.415,49.528 C11.829,49.422 12.268,49.565 12.542,49.895 C13.614,51.193 14.806,52.386 16.103,53.458 C16.433,53.731 16.576,54.169 16.470,54.584 L15.466,58.506 C16.801,59.424 18.206,60.235 19.667,60.935 L22.563,58.107 C22.868,57.807 23.321,57.711 23.721,57.863 C25.299,58.450 26.928,58.884 28.588,59.161 C29.011,59.231 29.355,59.540 29.470,59.952 L30.548,63.788 L35.451,63.788 L36.528,59.953 C36.644,59.541 36.988,59.233 37.410,59.162 C39.070,58.885 40.700,58.450 42.277,57.863 C42.678,57.712 43.130,57.807 43.436,58.107 L46.332,60.935 C47.793,60.236 49.198,59.425 50.532,58.506 L49.528,54.585 C49.422,54.170 49.565,53.731 49.895,53.458 C51.193,52.386 52.386,51.194 53.458,49.896 C53.730,49.564 54.169,49.421 54.584,49.529 L58.506,50.534 C59.424,49.198 60.236,47.794 60.935,46.333 L58.107,43.437 C57.808,43.131 57.713,42.679 57.863,42.278 C58.450,40.701 58.884,39.071 59.161,37.411 C59.231,36.989 59.540,36.645 59.952,36.529 L63.788,35.452 L63.788,30.548 ZM33.000,55.111 C20.794,55.098 10.902,45.206 10.889,33.000 C10.889,20.788 20.788,10.888 33.000,10.888 C45.212,10.888 55.111,20.788 55.111,33.000 C55.111,45.212 45.212,55.111 33.000,55.111 ZM52.844,31.894 C52.598,27.392 50.822,23.109 47.809,19.754 L45.508,22.055 L43.945,20.492 L46.246,18.190 C42.891,15.178 38.608,13.402 34.106,13.156 L34.106,16.416 L31.894,16.416 L31.894,13.156 C27.392,13.402 23.109,15.178 19.754,18.190 L22.055,20.492 L20.492,22.055 L18.191,19.754 C15.178,23.109 13.402,27.392 13.156,31.894 L16.416,31.894 L16.416,34.105 L13.155,34.105 C13.402,38.608 15.178,42.891 18.190,46.246 L20.492,43.945 L22.055,45.508 L19.754,47.809 C23.109,50.821 27.392,52.598 31.894,52.844 L31.894,49.583 L34.105,49.583 L34.105,52.844 C38.608,52.598 42.891,50.821 46.246,47.809 L43.944,45.508 L45.508,43.945 L47.809,46.246 C50.821,42.891 52.598,38.607 52.844,34.106 L49.584,34.106 L49.584,31.894 L52.844,31.894 ZM37.415,32.794 C37.419,32.861 37.422,32.931 37.422,33.000 C37.420,35.441 35.441,37.420 33.000,37.422 C30.558,37.422 28.578,35.442 28.578,33.000 C28.578,30.558 30.558,28.577 33.000,28.577 C33.070,28.577 33.138,28.581 33.207,28.585 L41.231,23.235 C41.602,22.988 42.086,22.988 42.457,23.235 C42.965,23.574 43.103,24.260 42.764,24.768 L37.415,32.794 ZM34.093,30.651 C33.865,30.803 33.588,30.865 33.316,30.825 C33.212,30.805 33.106,30.793 33.000,30.789 C31.779,30.789 30.789,31.779 30.789,33.000 C30.789,34.221 31.779,35.211 33.000,35.211 C34.221,35.211 35.211,34.221 35.211,33.000 C35.208,32.901 35.196,32.802 35.178,32.705 C35.136,32.427 35.197,32.143 35.348,31.906 L37.857,28.143 L34.093,30.651 Z"/>
</svg>