<svg 
 xmlns="http://www.w3.org/2000/svg"
 xmlns:xlink="http://www.w3.org/1999/xlink"
 width="71" height="71">
<defs>
<linearGradient id="PSgrad_0" x1="0%" x2="100%" y1="0%" y2="0%">
  <stop offset="0%" stop-color="rgb(23,100,227)" stop-opacity="1" />
  <stop offset="100%" stop-color="rgb(2,217,245)" stop-opacity="1" />
</linearGradient>

</defs>
<path fill-rule="evenodd"  fill="url(#PSgrad_0)"
d="M988.413,2757.59H972.106l0.8-4.72c0-.01,0-0.01,0-0.01s0-.01,0-0.01a1.015,1.015,0,0,0,0-.33l-0.847-4.95a1.871,1.871,0,0,0-1.846-1.56h-6.335v-0.79l13.178,0.86a1.249,1.249,0,0,0,.193.01,3.272,3.272,0,1,0-.179-6.54l-13.332.71a4.37,4.37,0,0,0-8.454,0l-13.319-.71h-0.194a3.27,3.27,0,1,0,.014,6.54,1.093,1.093,0,0,0,.18-0.01l13.177-.86v0.79h-6.335a1.87,1.87,0,0,0-1.844,1.56l-0.845,4.93a1.1,1.1,0,0,0-.018.19,1.149,1.149,0,0,0,.02.21l0.8,4.69h-16.33a6.6,6.6,0,0,0-6.587,6.59v9.98a2.706,2.706,0,0,0,2.7,2.71h23.482l2.193,12.94c-3.178,1.76-7.263,5.85-8.415,9.21a4.494,4.494,0,0,0,.033,3.54c0.927,1.86,2.81,2.86,5.445,2.87h0.06a15.251,15.251,0,0,0,5.351-1.1,4.792,4.792,0,0,0,9.315.01,15.349,15.349,0,0,0,5.33,1.09h0.072c2.628-.02,4.507-1.01,5.433-2.87a4.49,4.49,0,0,0,.032-3.54c-1.148-3.35-5.218-7.43-8.393-9.2l0.156-.92a1.04,1.04,0,0,0-2.051-.35l-2.553,15.06c0,0.01,0,.01,0,0.01a2.711,2.711,0,0,1-5.359,0,0.019,0.019,0,0,0,0-.01c-0.308-1.82-4.229-24.94-4.534-26.74h14.433l-1.229,7.24a1.036,1.036,0,0,0,.852,1.2,1.055,1.055,0,0,0,.175.02,1.043,1.043,0,0,0,1.025-.87l1.287-7.59H992.3a2.706,2.706,0,0,0,2.7-2.71v-9.98A6.6,6.6,0,0,0,988.413,2757.59Zm-24.534-15.25,13.3-.71a1.191,1.191,0,1,1,.066,2.38H977.2l-13.316-.88v-0.79Zm2.389,49.68c2.646,1.7,5.906,5.07,6.8,7.67a2.55,2.55,0,0,1,.071,1.94c-1.151,2.32-5.15,2.05-8.606.62Zm-11.78,10.22c-3.465,1.45-7.474,1.72-8.628-.61a2.55,2.55,0,0,1,.071-1.94c0.9-2.61,4.171-5.98,6.822-7.68Zm2.735-60.87a2.288,2.288,0,1,1,4.576,0v4.64h-4.576v-4.64Zm-15.383,2.64a1.169,1.169,0,0,1-.885-0.33,1.156,1.156,0,0,1-.373-0.86,1.189,1.189,0,0,1,1.19-1.19h0.069l13.3,0.71v0.79Zm22.1,7.64H948.375l0.609-3.56h21.055l0.61,3.56h-2.274a1.04,1.04,0,0,0,0,2.08h2.276L970,2757.59h-20.97l-0.654-3.86h15.564A1.04,1.04,0,0,0,963.937,2751.65Zm28.983,22.51a0.626,0.626,0,0,1-.624.63H988.69v-1.18a3.543,3.543,0,0,0-3.536-3.54H941.773a1.04,1.04,0,0,0,0,2.08h43.381a1.463,1.463,0,0,1,1.456,1.46v1.18H932.39v-1.18a1.463,1.463,0,0,1,1.456-1.46h3.49a1.04,1.04,0,0,0,0-2.08h-3.49a3.543,3.543,0,0,0-3.536,3.54v1.18H926.7a0.626,0.626,0,0,1-.624-0.63v-9.98a4.512,4.512,0,0,1,4.507-4.51h57.826a4.512,4.512,0,0,1,4.507,4.51v9.98Z" transform="translate(-924 -2737)"/>
</svg>
