<svg 
 xmlns="http://www.w3.org/2000/svg"
 xmlns:xlink="http://www.w3.org/1999/xlink"
 width="61" height="58">
<defs>
<linearGradient id="PSgrad_0" x1="0%" x2="100%" y1="0%" y2="0%">
  <stop offset="0%" stop-color="rgb(23,100,227)" stop-opacity="1" />
  <stop offset="100%" stop-color="rgb(2,217,245)" stop-opacity="1" />
</linearGradient>

</defs>
<path fill-rule="evenodd"  fill="url(#PSgrad_0)"
d="M1359.4,2752.69a8.492,8.492,0,0,0-12.06,0,8.656,8.656,0,0,0,0,12.15,8.492,8.492,0,0,0,12.06,0A8.656,8.656,0,0,0,1359.4,2752.69Zm-1.27,10.88a6.706,6.706,0,0,1-9.53,0,6.845,6.845,0,0,1,0-9.6,6.706,6.706,0,0,1,9.53,0A6.827,6.827,0,0,1,1358.13,2763.57Zm-1.26-8.33a4.919,4.919,0,0,0-7,0,5.028,5.028,0,0,0,0,7.06,4.937,4.937,0,0,0,7,0A5.028,5.028,0,0,0,1356.87,2755.24Zm-1.26,5.78a3.145,3.145,0,0,1-4.48,0,3.217,3.217,0,0,1,0-4.51,3.163,3.163,0,0,1,4.48,0A3.217,3.217,0,0,1,1355.61,2761.02Zm15.16-13.2a7.432,7.432,0,0,0-6.53-6.59,31.08,31.08,0,0,0-11.34.7,22.879,22.879,0,0,0-12.26,7.94c-2.25,2.81-4.15,5.31-5.75,7.5a4.953,4.953,0,0,0-5.71,1.24,43.774,43.774,0,0,0-4.94,6.84c-3.18,5.31-2.62,6.85-1.93,7.55a1.9,1.9,0,0,0,1.45.54l-5.6,5.65a4.454,4.454,0,0,0,0,6.27,4.376,4.376,0,0,0,6.22,0l1.09-1.1a1.763,1.763,0,0,1,2.51,0,1.811,1.811,0,0,1,0,2.52l-4.52,4.55a4.454,4.454,0,0,0,0,6.27,4.376,4.376,0,0,0,6.22,0l2.84-2.86a0.9,0.9,0,1,0-1.27-1.27l-2.83,2.86a2.619,2.619,0,0,1-3.7,0,2.656,2.656,0,0,1,0-3.73l4.52-4.55a3.591,3.591,0,0,0,0-5.06,3.537,3.537,0,0,0-5.03,0l-1.09,1.1a2.619,2.619,0,0,1-3.7,0,2.656,2.656,0,0,1,0-3.73l8.03-8.09c0.51-.25,1.06-0.55,1.66-0.9a6.612,6.612,0,0,0,1.35,1.96l1.62,1.63c-2.47,4.45-1.94,5.82-1.3,6.47s2.01,1.18,6.42-1.31l1.62,1.63a6.3,6.3,0,0,0,1.95,1.36q-0.525.915-.9,1.68h0l-5.84,5.88a0.918,0.918,0,0,0,0,1.27,0.9,0.9,0,0,0,1.27,0l3.41-3.44a1.956,1.956,0,0,0,.54,1.47c0.69,0.7,2.22,1.26,7.49-1.94a43.845,43.845,0,0,0,6.78-4.99,5.09,5.09,0,0,0,1.24-5.75c2.17-1.61,4.65-3.52,7.44-5.8a23.113,23.113,0,0,0,7.88-12.35A31.721,31.721,0,0,0,1370.77,2747.82Zm-42.17,21.86c-3.31,1.98-4.71,2.15-5.02,2.04-0.12-.33.08-1.88,2.35-5.62a42.748,42.748,0,0,1,4.51-6.22,3.294,3.294,0,0,1,3.36-1c-1.91,2.69-3.3,4.84-4.28,6.43A6.618,6.618,0,0,0,1328.6,2769.68Zm3.45,10.57c-0.12-.32.08-1.88,2.35-5.62a43.1,43.1,0,0,1,4.51-6.21,3.237,3.237,0,0,1,4.91-.03,3.285,3.285,0,0,1-.03,4.94,41.76,41.76,0,0,1-6.17,4.55C1333.91,2780.17,1332.37,2780.38,1332.05,2780.25Zm20.21,1.62a41.76,41.76,0,0,1-6.17,4.55c-3.71,2.29-5.25,2.49-5.57,2.37-0.12-.31.06-1.73,2.02-5.06a6.541,6.541,0,0,0,4.34-.93c1.58-.98,3.71-2.39,6.38-4.32A3.343,3.343,0,0,1,1352.26,2781.87Zm16.88-28.11-9.13-9.21a0.887,0.887,0,0,0-1.26,0,0.911,0.911,0,0,0,0,1.28l10.15,10.23a25.382,25.382,0,0,1-.55,2.73,21.284,21.284,0,0,1-7.28,11.4,150.546,150.546,0,0,1-15.13,11.08,4.712,4.712,0,0,1-5.86-.69l-1.29-1.3a43.474,43.474,0,0,0,6.27-4.67,5.11,5.11,0,0,0,.03-7.5,5.011,5.011,0,0,0-7.44.04,42.323,42.323,0,0,0-4.63,6.31l-1.29-1.3a4.8,4.8,0,0,1-.69-5.9,152.679,152.679,0,0,1,10.99-15.26,21.175,21.175,0,0,1,11.32-7.33,29.1,29.1,0,0,1,10.68-.65,5.655,5.655,0,0,1,4.97,5A32.471,32.471,0,0,1,1369.14,2753.76Zm-51.62,32.35a4.388,4.388,0,0,0-6.23,0,4.467,4.467,0,0,0,0,6.28,4.388,4.388,0,0,0,6.23,0A4.467,4.467,0,0,0,1317.52,2786.11Zm-1.27,5.01a2.6,2.6,0,0,1-3.7,0,2.656,2.656,0,0,1,0-3.73,2.6,2.6,0,0,1,3.7,0A2.656,2.656,0,0,1,1316.25,2791.12Z" transform="translate(-1310 -2741)"/>
</svg>
