<svg 
 xmlns="http://www.w3.org/2000/svg"
 xmlns:xlink="http://www.w3.org/1999/xlink"
 width="110px" height="111px">
<defs>
<linearGradient id="PSgrad_0" x1="0%" x2="100%" y1="0%" y2="0%">
  <stop offset="0%" stop-color="rgb(23,100,227)" stop-opacity="1" />
  <stop offset="100%" stop-color="rgb(2,217,245)" stop-opacity="1" />
</linearGradient>

</defs>
<path fill-rule="evenodd"  fill="url(#PSgrad_0)"
  d="M633.229,4054H525.771a1.788,1.788,0,0,0-1.771,1.8v98.4a1.788,1.788,0,0,0,1.771,1.8H633.229a1.788,1.788,0,0,0,1.771-1.8V4135a1.772,1.772,0,1,0-3.543,0v17.4H527.542V4072H631.457v55.8a1.772,1.772,0,1,0,3.543,0v-72A1.788,1.788,0,0,0,633.229,4054Zm-105.687,3.6H593.08v10.8H527.542v-10.8Zm69.08,10.8v-10.8h34.835v10.8H596.622Zm17.477-7.32a1.92,1.92,0,1,0,1.889,1.92A1.907,1.907,0,0,0,614.1,4061.08Zm-9.683,0A1.92,1.92,0,1,0,606.3,4063,1.907,1.907,0,0,0,604.416,4061.08Zm19.366,0a1.92,1.92,0,1,0,1.889,1.92A1.907,1.907,0,0,0,623.782,4061.08Zm-64.66,41.76a1.788,1.788,0,0,0,1.477-1.27l4.074-13.83a1.807,1.807,0,0,0-1.188-2.24,1.774,1.774,0,0,0-2.205,1.21l-2.923,9.92-2.816-4.78a1.753,1.753,0,0,0-3.04,0l-2.817,4.78-2.922-9.92a1.76,1.76,0,0,0-2.2-1.2,1.8,1.8,0,0,0-1.188,2.24l4.074,13.82a1.787,1.787,0,0,0,1.477,1.27,1.628,1.628,0,0,0,.22.01,1.776,1.776,0,0,0,1.519-.87l3.362-5.71,3.361,5.71A1.764,1.764,0,0,0,559.122,4102.84Zm13.613-.01a1.665,1.665,0,0,0,.221.02,1.765,1.765,0,0,0,1.519-.88l3.361-5.7,3.361,5.7a1.764,1.764,0,0,0,3.217-.4l4.074-13.83a1.807,1.807,0,0,0-1.188-2.24,1.774,1.774,0,0,0-2.2,1.21l-2.923,9.91-2.817-4.77a1.752,1.752,0,0,0-3.039,0l-2.816,4.77-2.922-9.91a1.774,1.774,0,0,0-2.2-1.21,1.806,1.806,0,0,0-1.189,2.24l4.074,13.83A1.762,1.762,0,0,0,572.735,4102.83Zm38.38-17.33a1.774,1.774,0,0,0-2.205,1.21l-2.923,9.91-2.817-4.78a1.762,1.762,0,0,0-3.039,0l-2.817,4.78-2.922-9.91a1.774,1.774,0,0,0-2.205-1.21,1.807,1.807,0,0,0-1.188,2.24l4.074,13.82a1.761,1.761,0,0,0,3.216.41l3.361-5.7,3.362,5.7a1.764,1.764,0,0,0,1.519.88,1.635,1.635,0,0,0,.22-0.02,1.771,1.771,0,0,0,1.477-1.27l4.075-13.82A1.807,1.807,0,0,0,611.115,4085.5Zm-54.831,27.55a1.788,1.788,0,0,0-1.771-1.8h-9.447a1.788,1.788,0,0,0-1.771,1.8v9.6a1.788,1.788,0,0,0,1.771,1.8h9.447a1.788,1.788,0,0,0,1.771-1.8v-9.6Zm-3.542,7.8h-5.9v-6h5.9v6Zm1.771,7.2h-9.447a1.788,1.788,0,0,0-1.771,1.8v9.6a1.782,1.782,0,0,0,1.771,1.8h9.447a1.782,1.782,0,0,0,1.771-1.8v-9.6A1.788,1.788,0,0,0,554.513,4128.05Zm-1.771,9.6h-5.9v-6h5.9v6Zm57.864-21.6h-7.085a1.8,1.8,0,0,0,0,3.6h7.085A1.8,1.8,0,0,0,610.606,4116.05Zm-14.17,0H561.6a1.8,1.8,0,0,0,0,3.6h34.838A1.8,1.8,0,0,0,596.436,4116.05Zm14.17,16.8h-7.085a1.8,1.8,0,0,0,0,3.6h7.085A1.8,1.8,0,0,0,610.606,4132.85Zm-14.17,0H561.6a1.8,1.8,0,0,0,0,3.6h34.838A1.8,1.8,0,0,0,596.436,4132.85Z" transform="translate(-524 -4054)"/>
</svg>
