<svg 
 xmlns="http://www.w3.org/2000/svg"
 xmlns:xlink="http://www.w3.org/1999/xlink"
 width="67px" height="67px">
<defs>
<linearGradient id="PSgrad_0" x1="0%" x2="100%" y1="0%" y2="0%">
  <stop offset="0%" stop-color="rgb(23,100,227)" stop-opacity="1" />
  <stop offset="100%" stop-color="rgb(2,217,245)" stop-opacity="1" />
</linearGradient>

</defs>
<path fill-rule="evenodd"  fill="url(#PSgrad_0)"
d="M1326.91,3622.78h4.26v13.76h-23.2v-13.76h15.8v-1.97H1306v22.95h9.22l-0.65,3.26h-2.34V3649h14.68v-1.98h-2.33l-0.66-3.26h9.23v-22.95h-6.24v1.97Zm-10.33,24.24,0.66-3.26h4.67l0.65,3.26h-5.98Zm14.59-5.24h-23.2v-3.27h23.2v3.27Zm-19-11.6v-3.21h2.16V3625h-4.13v5.18h1.97Zm14.74,4.14h2.1v-1.98h-2.1v1.98Zm2.1-6.17h-2.1v1.97h2.1v-1.97Zm-6.29,6.17h2.1v-1.98h-2.1v1.98Zm50.28-13.51h-6.23v1.97h4.25v13.76h-23.19v-13.76h15.79v-1.97h-17.77v22.95h9.23l-0.66,3.26h-2.33V3649h14.68v-1.98h-2.34l-0.65-3.26H1373v-22.95Zm-16.56,26.21,0.65-3.26h4.67l0.66,3.26h-5.98Zm14.58-5.24h-23.19v-3.27h23.19v3.27Zm-19-11.6v-3.21h2.16V3625h-4.13v5.18h1.97Zm16.85,2.16h-2.1v1.98h2.1v-1.98Zm0-4.19h-2.1v1.97h2.1v-1.97Zm-6.3,6.17h2.1v-1.98h-2.1v1.98Zm-28.31-48.12v1.97h2.09v-1.97h-2.09Zm4.19,0v1.97h2.1v-1.97h-2.1Zm4.2,0v1.97h2.09v-1.97h-2.09Zm-11.54,6.17h16.78v-1.98h-16.78v1.98Zm27.33,26.28h1.97v-5.19h-19.92v-4.31h11.53v-10.37h-3.14v-2.22h3.14v-3.08h-1.97v1.11h-21.1v-6.42h3.15v-4.2h14.8v4.2h3.15v2.16h1.97v-4.13h-3.14V3582h-18.76v4.2h-3.14v10.36h3.14v2.22h-3.14v3.09h1.97v-1.11h21.1v6.41h-21.1v-2.16h-1.97v4.14h11.53v4.31h-19.92v5.19h1.97v-3.21h17.95v4.25h1.98v-4.25h17.95v3.21Zm-11.54-19.87h-14.8v-2.22h14.8v2.22Zm-8.39,25.11h1.98v-2.1h-1.98v2.1Zm0,4.2h1.98v-2.1h-1.98v2.1Z" transform="translate(-1306 -3582)"/>
</svg>
