<svg 
 xmlns="http://www.w3.org/2000/svg"
 xmlns:xlink="http://www.w3.org/1999/xlink"
 width="110px" height="110px">
<defs>
<linearGradient id="PSgrad_0" x1="0%" x2="100%" y1="0%" y2="0%">
  <stop offset="0%" stop-color="rgb(23,100,227)" stop-opacity="1" />
  <stop offset="100%" stop-color="rgb(2,217,245)" stop-opacity="1" />
</linearGradient>

</defs>
<path fill-rule="evenodd"  fill="url(#PSgrad_0)"
d="M1321.67,4059.17h3.66v3.66h-3.66v-3.66Zm7.33,0h20.17v3.66H1329v-3.66Zm-7.33,18.33h3.66v3.67h-3.66v-3.67Zm7.33,0h20.17v3.67H1329v-3.67Zm34.83-27.5h-47.66a1.833,1.833,0,0,0-1.84,1.83v55a1.842,1.842,0,0,0,1.84,1.84h47.66a1.842,1.842,0,0,0,1.84-1.84v-55A1.833,1.833,0,0,0,1363.83,4050Zm-1.83,55h-44v-14.67h44V4105Zm0-18.33h-44V4072h44v14.67Zm0-18.34h-44v-14.66h44v14.66Zm-40.33,27.5h3.66v3.67h-3.66v-3.67Zm7.33,0h20.17v3.67H1329v-3.67ZM1316.17,4127h-29.34a1.831,1.831,0,0,0-1.83,1.83v29.34a1.831,1.831,0,0,0,1.83,1.83h29.34a1.831,1.831,0,0,0,1.83-1.83v-29.34A1.831,1.831,0,0,0,1316.17,4127Zm-1.84,29.33h-25.66v-11h25.66v11Zm0-14.66h-25.66v-11h25.66v11Zm-22,7.33H1296v3.67h-3.67V4149Zm7.34,0h11v3.67h-11V4149Zm-7.34-14.67H1296V4138h-3.67v-3.67Zm7.34,0h11V4138h-11v-3.67Zm55-7.33h-29.34a1.831,1.831,0,0,0-1.83,1.83v29.34a1.831,1.831,0,0,0,1.83,1.83h29.34a1.831,1.831,0,0,0,1.83-1.83v-29.34A1.831,1.831,0,0,0,1354.67,4127Zm-1.84,29.33h-25.66v-11h25.66v11Zm0-14.66h-25.66v-11h25.66v11Zm-22,7.33h3.67v3.67h-3.67V4149Zm7.34,0h11v3.67h-11V4149Zm-7.34-14.67h3.67V4138h-3.67v-3.67Zm7.34,0h11V4138h-11v-3.67Zm31.16,14.67H1373v3.67h-3.67V4149Zm7.34,0h11v3.67h-11V4149Zm16.5-22h-29.34a1.831,1.831,0,0,0-1.83,1.83v29.34a1.831,1.831,0,0,0,1.83,1.83h29.34a1.831,1.831,0,0,0,1.83-1.83v-29.34A1.831,1.831,0,0,0,1393.17,4127Zm-1.84,29.33h-25.66v-11h25.66v11Zm0-14.66h-25.66v-11h25.66v11Zm-22-7.34H1373V4138h-3.67v-3.67Zm7.34,0h11V4138h-11v-3.67Zm1.83-18.33h-36.67v-3.67h-3.66V4116H1301.5a1.831,1.831,0,0,0-1.83,1.83v5.5h3.66v-3.66h34.84v3.66h3.66v-3.66h34.84v3.66h3.66v-5.5A1.831,1.831,0,0,0,1378.5,4116Z" transform="translate(-1285 -4050)"/>
</svg>
