<svg 
 xmlns="http://www.w3.org/2000/svg"
 xmlns:xlink="http://www.w3.org/1999/xlink"
 width="110px" height="110px">
<defs>
<linearGradient id="PSgrad_0" x1="0%" x2="100%" y1="0%" y2="0%">
  <stop offset="0%" stop-color="rgb(23,100,227)" stop-opacity="1" />
  <stop offset="100%" stop-color="rgb(2,217,245)" stop-opacity="1" />
</linearGradient>

</defs>
<path fill-rule="evenodd"  fill="url(#PSgrad_0)"
d="M1013.15,3763.84h-5.5a1.83,1.83,0,1,0,0,3.66h5.5A1.83,1.83,0,1,0,1013.15,3763.84Zm-82.486-51.33h14.665a1.835,1.835,0,0,0,0-3.67H930.664A1.835,1.835,0,0,0,930.664,3712.51Zm0,7.33h14.665a1.83,1.83,0,1,0,0-3.66H930.664A1.83,1.83,0,1,0,930.664,3719.84Zm14.665,3.67H930.664a1.83,1.83,0,1,0,0,3.66h14.665A1.83,1.83,0,1,0,945.329,3723.51ZM938,3730.84a7.335,7.335,0,1,0,7.333,7.33A7.33,7.33,0,0,0,938,3730.84Zm0,11a3.665,3.665,0,1,1,3.667-3.67A3.666,3.666,0,0,1,938,3741.84Zm51.327-33H974.658a1.835,1.835,0,0,0,0,3.67h14.665A1.835,1.835,0,0,0,989.323,3708.84Zm0,7.34H974.658a1.83,1.83,0,1,0,0,3.66h14.665A1.83,1.83,0,1,0,989.323,3716.18Zm0,7.33H974.658a1.83,1.83,0,1,0,0,3.66h14.665A1.83,1.83,0,1,0,989.323,3723.51Zm-7.333,7.33a7.335,7.335,0,1,0,7.332,7.33A7.33,7.33,0,0,0,981.99,3730.84Zm0,11a3.665,3.665,0,1,1,3.666-3.67A3.666,3.666,0,0,1,981.99,3741.84Zm18.33,22H989.062a7.324,7.324,0,0,0-5.238-5.24v-5.76h7.332a7.33,7.33,0,0,0,7.332-7.33v-12.72a25.651,25.651,0,0,0-11.109-49.54h-0.027a31.165,31.165,0,0,0-60.138,7.26,20.853,20.853,0,0,0-9.587,2.5,21.706,21.706,0,0,0,3.872,40.79v11.71a7.336,7.336,0,0,0,7.332,7.33h7.332v5.76a7.325,7.325,0,0,0-5.239,5.24h-24.09a1.83,1.83,0,1,0,0,3.66h24.09a7.3,7.3,0,0,0,14.145,0h29.85a7.3,7.3,0,0,0,14.144,0h11.257A1.83,1.83,0,0,0,1000.32,3763.84Zm-5.5-18.33a3.664,3.664,0,0,1-3.666,3.66H972.825a3.664,3.664,0,0,1-3.666-3.66v-36.67a3.664,3.664,0,0,1,3.666-3.66h18.331a3.664,3.664,0,0,1,3.666,3.66v36.67ZM921.5,3708.84v21.15a18.036,18.036,0,0,1-2.237-33.7,15.793,15.793,0,0,1,9.463-2.03,1.784,1.784,0,0,0,1.359-.44,1.81,1.81,0,0,0,.631-1.28,27.5,27.5,0,0,1,53.636-6.75,1.835,1.835,0,0,0,2,1.26c0.436-.06.873-0.11,1.312-0.14a21.749,21.749,0,0,1,23.38,18.38,21.973,21.973,0,0,1-12.552,23.53v-19.98a7.33,7.33,0,0,0-7.332-7.33H972.825a7.329,7.329,0,0,0-7.332,7.33v22h-11v-22a7.329,7.329,0,0,0-7.332-7.33H928.831A7.329,7.329,0,0,0,921.5,3708.84Zm7.332,40.33a3.664,3.664,0,0,1-3.666-3.66v-36.67a3.664,3.664,0,0,1,3.666-3.66h18.331a3.664,3.664,0,0,1,3.666,3.66v36.67a3.664,3.664,0,0,1-3.666,3.66H928.831ZM938,3769.34a3.67,3.67,0,1,1,3.667-3.67A3.672,3.672,0,0,1,938,3769.34Zm36.922-5.5H945.069a7.325,7.325,0,0,0-5.24-5.24v-5.76h7.333a7.33,7.33,0,0,0,7.332-7.33v-11h11v11a7.33,7.33,0,0,0,7.333,7.33h7.332v5.76A7.325,7.325,0,0,0,974.918,3763.84Zm7.072,5.5a3.67,3.67,0,1,1,3.666-3.67A3.672,3.672,0,0,1,981.99,3769.34Z" transform="translate(-905 -3663)"/>
</svg>
