<svg 
 xmlns="http://www.w3.org/2000/svg"
 xmlns:xlink="http://www.w3.org/1999/xlink"
 width="67px" height="67px">
<defs>
<linearGradient id="PSgrad_0" x1="0%" x2="100%" y1="0%" y2="0%">
  <stop offset="0%" stop-color="rgb(23,100,227)" stop-opacity="1" />
  <stop offset="100%" stop-color="rgb(2,217,245)" stop-opacity="1" />
</linearGradient>

</defs>
<path fill-rule="evenodd"  fill="url(#PSgrad_0)"
d="M1329.33,3972.58h2.24v2.24h-2.24v-2.24Zm4.47,0h12.28v2.24H1333.8v-2.24Zm-4.47,11.17h2.24v2.23h-2.24v-2.23Zm4.47,0h12.28v2.23H1333.8v-2.23Zm21.22-16.75h-29.04a1.116,1.116,0,0,0-1.11,1.12v33.5a1.114,1.114,0,0,0,1.11,1.11h29.04a1.114,1.114,0,0,0,1.11-1.11v-33.5A1.116,1.116,0,0,0,1355.02,3967Zm-1.12,33.5h-26.8v-8.93h26.8v8.93Zm0-11.17h-26.8v-8.93h26.8v8.93Zm0-11.16h-26.8v-8.94h26.8v8.94Zm-24.57,16.75h2.24v2.23h-2.24v-2.23Zm4.47,0h12.28v2.23H1333.8v-2.23Zm-7.82,18.98h-17.86a1.118,1.118,0,0,0-1.12,1.12v17.86a1.118,1.118,0,0,0,1.12,1.12h17.86a1.118,1.118,0,0,0,1.12-1.12v-17.86A1.118,1.118,0,0,0,1325.98,4013.9Zm-1.11,17.87h-15.64v-6.7h15.64v6.7Zm0-8.94h-15.64v-6.7h15.64v6.7Zm-13.4,4.47h2.23v2.23h-2.23v-2.23Zm4.46,0h6.7v2.23h-6.7v-2.23Zm-4.46-8.93h2.23v2.23h-2.23v-2.23Zm4.46,0h6.7v2.23h-6.7v-2.23Zm33.5-4.47h-17.86a1.118,1.118,0,0,0-1.12,1.12v17.86a1.118,1.118,0,0,0,1.12,1.12h17.86a1.118,1.118,0,0,0,1.12-1.12v-17.86A1.118,1.118,0,0,0,1349.43,4013.9Zm-1.11,17.87h-15.64v-6.7h15.64v6.7Zm0-8.94h-15.64v-6.7h15.64v6.7Zm-13.4,4.47h2.23v2.23h-2.23v-2.23Zm4.46,0h6.7v2.23h-6.7v-2.23Zm-4.46-8.93h2.23v2.23h-2.23v-2.23Zm4.46,0h6.7v2.23h-6.7v-2.23Zm18.99,8.93h2.23v2.23h-2.23v-2.23Zm4.46,0h6.7v2.23h-6.7v-2.23Zm10.05-13.4h-17.86a1.118,1.118,0,0,0-1.12,1.12v17.86a1.118,1.118,0,0,0,1.12,1.12h17.86a1.118,1.118,0,0,0,1.12-1.12v-17.86A1.118,1.118,0,0,0,1372.88,4013.9Zm-1.11,17.87h-15.64v-6.7h15.64v6.7Zm0-8.94h-15.64v-6.7h15.64v6.7Zm-13.4-4.46h2.23v2.23h-2.23v-2.23Zm4.46,0h6.7v2.23h-6.7v-2.23Zm1.12-11.17h-22.33v-2.23h-2.24v2.23h-22.33a1.118,1.118,0,0,0-1.12,1.12v3.35h2.24v-2.24h21.21v2.24h2.24v-2.24h21.21v2.24h2.24v-3.35A1.118,1.118,0,0,0,1363.95,4007.2Z" transform="translate(-1307 -3967)"/>
</svg>
