<svg 
 xmlns="http://www.w3.org/2000/svg"
 xmlns:xlink="http://www.w3.org/1999/xlink"
 width="109px" height="109px">
<defs>
<linearGradient id="PSgrad_0" x1="0%" x2="100%" y1="0%" y2="0%">
  <stop offset="0%" stop-color="rgb(23,100,227)" stop-opacity="1" />
  <stop offset="100%" stop-color="rgb(2,217,245)" stop-opacity="1" />
</linearGradient>

</defs>
<path fill-rule="evenodd"  fill="url(#PSgrad_0)"
d="M574.965,3706.87a2.13,2.13,0,1,0,2.129,2.13A2.134,2.134,0,0,0,574.965,3706.87Zm0,25.55a2.13,2.13,0,1,0,2.129,2.13A2.134,2.134,0,0,0,574.965,3732.42Zm0,25.55a2.13,2.13,0,1,0,2.129,2.13A2.128,2.128,0,0,0,574.965,3757.97Zm40.875-55.35a6.385,6.385,0,1,0,6.386,6.38A6.389,6.389,0,0,0,615.84,3702.62Zm0,8.51a2.13,2.13,0,1,1,2.129-2.13A2.128,2.128,0,0,1,615.84,3711.13Zm-66.422-4.26H540.9a2.13,2.13,0,0,0,0,4.26h8.516A2.13,2.13,0,0,0,549.418,3706.87Zm17.031,0h-8.516a2.13,2.13,0,0,0,0,4.26h8.516A2.13,2.13,0,0,0,566.449,3706.87Zm49.391,21.29a6.39,6.39,0,1,0,6.386,6.39A6.4,6.4,0,0,0,615.84,3728.16Zm0,8.52a2.13,2.13,0,1,1,2.129-2.13A2.135,2.135,0,0,1,615.84,3736.68Zm-66.422-4.26H540.9a2.13,2.13,0,0,0,0,4.26h8.516A2.13,2.13,0,0,0,549.418,3732.42Zm17.031,0h-8.516a2.13,2.13,0,0,0,0,4.26h8.516A2.13,2.13,0,0,0,566.449,3732.42Zm49.391,21.29a6.385,6.385,0,1,0,6.386,6.39A6.4,6.4,0,0,0,615.84,3753.71Zm0,8.52a2.13,2.13,0,1,1,2.129-2.13A2.135,2.135,0,0,1,615.84,3762.23ZM635,3699.24a14.909,14.909,0,0,0-1.55-6.61l-10.23-23.01c-0.013-.03-0.027-0.06-0.041-0.09a6.348,6.348,0,0,0-5.713-3.53H543.533a6.348,6.348,0,0,0-5.712,3.53c-0.015.03-.029,0.06-0.041,0.09l-10.23,23.01a14.919,14.919,0,0,0-1.55,6.61v18.28a6.366,6.366,0,0,1,0,8.51v17.04a6.366,6.366,0,0,1,0,8.51v17.03a6.4,6.4,0,0,0,6.387,6.39h96.226a6.4,6.4,0,0,0,6.387-6.39v-17.03a6.363,6.363,0,0,1,0-8.51v-17.04a6.363,6.363,0,0,1,0-8.51v-18.28Zm-93.353-27.84a2.107,2.107,0,0,1,1.886-1.14h73.933a2.109,2.109,0,0,1,1.887,1.14l10.093,22.7H531.553Zm89.095,97.21a2.128,2.128,0,0,1-2.129,2.13H532.387a2.128,2.128,0,0,1-2.129-2.13v-17.03a2.135,2.135,0,0,1,2.129-2.13h96.226a2.135,2.135,0,0,1,2.129,2.13v17.03Zm0-25.54a2.126,2.126,0,0,1-2.129,2.12H532.387a2.126,2.126,0,0,1-2.129-2.12v-17.04a2.126,2.126,0,0,1,2.129-2.12h96.226a2.126,2.126,0,0,1,2.129,2.12v17.04Zm0-25.55a2.135,2.135,0,0,1-2.129,2.13H532.387a2.135,2.135,0,0,1-2.129-2.13v-18.28c0-.29.017-0.59,0.041-0.88H630.7c0.025,0.29.042,0.59,0.042,0.88v18.28Zm-81.324,40.45H540.9a2.13,2.13,0,0,0,0,4.26h8.516A2.13,2.13,0,0,0,549.418,3757.97Zm17.031,0h-8.516a2.13,2.13,0,0,0,0,4.26h8.516A2.13,2.13,0,0,0,566.449,3757.97Z" transform="translate(-526 -3666)"/>
</svg>
