<svg 
 xmlns="http://www.w3.org/2000/svg"
 xmlns:xlink="http://www.w3.org/1999/xlink"
 width="110px" height="110px">
<defs>
<linearGradient id="PSgrad_0" x1="0%" x2="100%" y1="0%" y2="0%">
  <stop offset="0%" stop-color="rgb(23,100,227)" stop-opacity="1" />
  <stop offset="100%" stop-color="rgb(2,217,245)" stop-opacity="1" />
</linearGradient>

</defs>
<path fill-rule="evenodd"  fill="url(#PSgrad_0)"
d="M913.823,4082.76a2.19,2.19,0,0,0-4.06-.14A54.991,54.991,0,0,0,936,4154.49a2.161,2.161,0,0,0,.957.22,2.185,2.185,0,0,0,2.059-2.94Zm-4.44,22.24a50.224,50.224,0,0,1,2.338-15.22l21.163,57.98A50.253,50.253,0,0,1,909.383,4105Zm69.819,48.29-16.215-44.42a2.185,2.185,0,0,0-2.058-1.44h-0.021a2.184,2.184,0,0,0-2.052,1.47l-15.846,46.04a2.2,2.2,0,0,0,1.454,2.82,55.014,55.014,0,0,0,33.8-.88,2.186,2.186,0,0,0,1.139-3.21A3.074,3.074,0,0,1,979.2,4153.29Zm-19.2,2.33a50.261,50.261,0,0,1-12.083-1.47l13.072-37.98,13.613,37.3A50.385,50.385,0,0,1,960,4155.62Zm25.2-18.85a2.185,2.185,0,0,0,2.065-1.46l5.831-16.42c2.8-7.17,4.156-13.01,4.156-17.83a25.52,25.52,0,0,0-4.054-14.38q-0.016-.03-0.036-0.06c-0.21-.34-0.42-0.68-0.628-1.01-2.271-3.67-4.232-6.84-4.232-10.22,0-3.46,2.552-7.19,6.675-7.19,0.068,0,.173.01,0.284,0.02a2.258,2.258,0,0,0,.26.02,2.191,2.191,0,0,0,1.621-3.8,54.988,54.988,0,0,0-83.1,10.35,2.187,2.187,0,0,0,1.758,3.39c1.349,0.05,2.518.07,3.472,0.07,5.089,0,12.542-.55,14-0.66a2.438,2.438,0,0,1,.03,1.8c-0.577.07-3.077,0.34-5.778,0.48a2.183,2.183,0,0,0-1.963,2.88l17.291,51.47a2.19,2.19,0,0,0,2.077,1.49h0a2.188,2.188,0,0,0,2.077-1.49l11.557-34.66a2.184,2.184,0,0,0-.026-1.46l-6.288-16.81a2.181,2.181,0,0,0-1.925-1.42c-2.489-.15-4.893-0.43-5.327-0.48a2.6,2.6,0,0,1,.081-1.8c1.5,0.11,9.045.66,13.823,0.66,5.09,0,12.543-.55,14.005-0.66a2.433,2.433,0,0,1,.03,1.8c-0.576.07-3.079,0.34-5.779,0.48a2.189,2.189,0,0,0-1.96,2.89l17.919,52.53a2.184,2.184,0,0,0,2.061,1.48H985.2Zm-14.924-52.72c1.869-.15,3.22-0.31,3.3-0.32,2.52-.3,4.152-2.74,3.881-5.8-0.259-2.93-2.156-4.88-4.6-4.73h-0.042c-0.085.01-8.533,0.67-13.905,0.67-5.044,0-13.654-.66-13.74-0.67h-0.04c-2.489-.15-4.437,1.95-4.617,4.99s1.475,5.35,3.943,5.55c0.349,0.04,2.1.25,4.192,0.4l5.522,14.77-9.242,27.71-14.3-42.57c1.877-.15,3.234-0.31,3.318-0.32,2.519-.3,4.15-2.74,3.879-5.8-0.259-2.93-2.155-4.88-4.6-4.73H933.18c-0.08.01-7.71,0.6-13.08,0.66a50.611,50.611,0,0,1,70.572-9.13,11.615,11.615,0,0,0-6.753,10.66c0,4.63,2.375,8.46,4.889,12.52,0.2,0.32.4,0.65,0.6,0.98a21.181,21.181,0,0,1,3.458,12.17c0,4.22-1.3,9.69-3.869,16.27-0.008.02-.016,0.04-0.023,0.06l-3.736,10.53Zm37.984-5.44a2.19,2.19,0,0,0-4.09,1.35,38.885,38.885,0,0,1,.34,5.13,47.654,47.654,0,0,1-3.87,18.1c-0.01.04-.02,0.07-0.03,0.1l-16.131,46.63a2.19,2.19,0,0,0,3.175,2.61A55,55,0,0,0,1008.26,4078.61Zm-17.5,66.57,13.973-40.41a56.083,56.083,0,0,0,3.81-14.12A50.564,50.564,0,0,1,990.757,4145.18Zm-29.407-15.75a2.193,2.193,0,0,0-2.771,1.39l-0.293.88a2.192,2.192,0,0,0,1.386,2.77,2.1,2.1,0,0,0,.694.11,2.191,2.191,0,0,0,2.078-1.5l0.292-.87A2.2,2.2,0,0,0,961.35,4129.43Zm-2.7,8.11a2.195,2.195,0,0,0-2.772,1.39l-3.652,10.95a2.2,2.2,0,0,0,1.386,2.78,2.387,2.387,0,0,0,.693.11,2.191,2.191,0,0,0,2.078-1.5l3.653-10.96A2.2,2.2,0,0,0,958.648,4137.54Z" transform="translate(-905 -4050)"/>
</svg>
