<svg 
 xmlns="http://www.w3.org/2000/svg"
 xmlns:xlink="http://www.w3.org/1999/xlink"
 width="71px" height="71px">
<defs>
<linearGradient id="PSgrad_0" x1="0%" x2="100%" y1="0%" y2="0%">
  <stop offset="0%" stop-color="rgb(23,100,227)" stop-opacity="1" />
  <stop offset="100%" stop-color="rgb(2,217,245)" stop-opacity="1" />
</linearGradient>

</defs>
<path fill-rule="evenodd"  fill="url(#PSgrad_0)"
d="M930.7,3988.14a1.419,1.419,0,0,0-1.28-.93,1.44,1.44,0,0,0-1.341.84,35.5,35.5,0,0,0,16.934,46.4,1.493,1.493,0,0,0,.618.14,1.421,1.421,0,0,0,1.329-1.9Zm-2.866,14.36a32.347,32.347,0,0,1,1.509-9.82L943,4030.1A32.426,32.426,0,0,1,927.829,4002.5Zm45.065,31.17-10.466-28.68a1.418,1.418,0,0,0-1.329-.92h-0.013a1.4,1.4,0,0,0-1.324.95l-10.228,29.72a1.4,1.4,0,0,0,.938,1.81,35.5,35.5,0,0,0,21.818-.56,1.418,1.418,0,0,0,.735-2.08A1.561,1.561,0,0,1,972.894,4033.67Zm-12.394,1.5a33.072,33.072,0,0,1-7.8-.94l8.437-24.52,8.787,24.07A32.286,32.286,0,0,1,960.5,4035.17Zm16.265-12.16a1.419,1.419,0,0,0,1.333-.94l3.764-10.6c1.805-4.63,2.683-8.4,2.683-11.52a16.427,16.427,0,0,0-2.617-9.27,0.141,0.141,0,0,0-.023-0.04c-0.136-.22-0.272-0.44-0.406-0.66-1.466-2.37-2.732-4.41-2.732-6.6a4.5,4.5,0,0,1,4.309-4.63c0.044,0,.111.01,0.183,0.01a0.948,0.948,0,0,0,.168.01,1.41,1.41,0,0,0,1.046-2.45,35.492,35.492,0,0,0-53.634,6.68,1.412,1.412,0,0,0,1.134,2.19c0.871,0.03,1.625.04,2.241,0.04,3.285,0,8.1-.35,9.04-0.42a1.563,1.563,0,0,1,.018,1.16c-0.372.04-1.985,0.22-3.729,0.31a1.407,1.407,0,0,0-1.267,1.86l11.161,33.22a1.4,1.4,0,0,0,1.34.96h0a1.416,1.416,0,0,0,1.34-.96l7.46-22.37a1.434,1.434,0,0,0-.017-0.95l-4.059-10.85a1.41,1.41,0,0,0-1.242-.91c-1.607-.1-3.158-0.28-3.438-0.31a1.67,1.67,0,0,1,.052-1.16c0.971,0.07,5.838.42,8.922,0.42,3.285,0,8.1-.35,9.04-0.42a1.568,1.568,0,0,1,.019,1.16c-0.371.04-1.987,0.22-3.73,0.31a1.4,1.4,0,0,0-1.1.62,1.415,1.415,0,0,0-.167,1.25l11.566,33.9a1.424,1.424,0,0,0,1.33.96h0.008Zm-9.632-34.03c1.206-.1,2.078-0.2,2.132-0.21,1.626-.19,2.679-1.77,2.5-3.74-0.168-1.89-1.392-3.15-2.971-3.06h-0.028c-0.055.01-5.507,0.43-8.974,0.43-3.256,0-8.813-.42-8.869-0.43H950.9c-1.607-.09-2.864,1.26-2.98,3.22s0.952,3.46,2.545,3.58c0.225,0.03,1.353.17,2.706,0.27l3.564,9.53-5.965,17.88-9.231-27.47c1.212-.1,2.088-0.2,2.142-0.21,1.626-.19,2.679-1.77,2.5-3.74-0.168-1.89-1.392-3.15-2.971-3.06h-0.027c-0.052.01-4.976,0.39-8.443,0.43a32.671,32.671,0,0,1,45.551-5.89,7.491,7.491,0,0,0-4.358,6.87c0,3,1.532,5.47,3.155,8.09q0.193,0.315.389,0.63a13.658,13.658,0,0,1,2.233,7.85,30.563,30.563,0,0,1-2.5,10.51c0,0.01-.01.03-0.015,0.04l-2.411,6.79Zm24.518-3.51a1.413,1.413,0,0,0-2.642.87,24.76,24.76,0,0,1,.217,3.31,30.835,30.835,0,0,1-2.492,11.68c-0.008.03-.016,0.05-0.023,0.07L976.3,4031.5a1.4,1.4,0,0,0,.439,1.55,1.429,1.429,0,0,0,.9.32,1.4,1.4,0,0,0,.711-0.19A35.5,35.5,0,0,0,991.651,3985.47Zm-11.3,42.97,9.021-26.09a36.578,36.578,0,0,0,2.459-9.11A32.669,32.669,0,0,1,980.353,4028.44Zm-18.981-10.17a1.408,1.408,0,0,0-1.789.9l-0.189.56a1.417,1.417,0,0,0,.895,1.79,1.39,1.39,0,0,0,.447.07,1.413,1.413,0,0,0,1.342-.96l0.188-.57A1.418,1.418,0,0,0,961.372,4018.27Zm-1.745,5.23a1.424,1.424,0,0,0-1.789.9l-2.357,7.07a1.417,1.417,0,0,0,.894,1.79,1.4,1.4,0,0,0,.448.07,1.41,1.41,0,0,0,1.341-.96l2.358-7.08A1.417,1.417,0,0,0,959.627,4023.5Z" transform="translate(-925 -3967)"/>
</svg>
