<svg 
 xmlns="http://www.w3.org/2000/svg"
 xmlns:xlink="http://www.w3.org/1999/xlink"
 width="75px" height="67px">
<defs>
<linearGradient id="PSgrad_0" x1="0%" x2="100%" y1="0%" y2="0%">
  <stop offset="0%" stop-color="rgb(23,100,227)" stop-opacity="1" />
  <stop offset="100%" stop-color="rgb(2,217,245)" stop-opacity="1" />
</linearGradient>

</defs>
<path fill-rule="evenodd"  fill="url(#PSgrad_0)"
  d="M615.8,3967H543.2a1.19,1.19,0,0,0-1.2,1.18v64.64a1.19,1.19,0,0,0,1.2,1.18H615.8a1.19,1.19,0,0,0,1.2-1.18v-12.61a1.2,1.2,0,0,0-2.394,0v11.43H544.394v-52.82h70.212v36.66a1.2,1.2,0,0,0,2.394,0v-47.3A1.19,1.19,0,0,0,615.8,3967Zm-71.409,2.36h44.281v7.1H544.394v-7.1Zm46.675,7.1v-7.1h23.537v7.1H591.069Zm11.809-4.81a1.26,1.26,0,1,0,1.276,1.26A1.273,1.273,0,0,0,602.878,3971.65Zm-6.543,0a1.26,1.26,0,1,0,1.277,1.26A1.273,1.273,0,0,0,596.335,3971.65Zm13.085,0a1.26,1.26,0,1,0,1.277,1.26A1.272,1.272,0,0,0,609.42,3971.65Zm-43.689,27.43a1.205,1.205,0,0,0,1-.83l2.753-9.08a1.188,1.188,0,0,0-.8-1.48,1.206,1.206,0,0,0-1.49.8l-1.974,6.51-1.9-3.14a1.209,1.209,0,0,0-2.053,0l-1.9,3.14-1.974-6.51a1.205,1.205,0,0,0-1.49-.8,1.188,1.188,0,0,0-.8,1.48l2.753,9.08a1.205,1.205,0,0,0,1,.83,0.747,0.747,0,0,0,.149.01,1.2,1.2,0,0,0,1.026-.58l2.271-3.74,2.271,3.74A1.19,1.19,0,0,0,565.731,3999.08Zm9.2,0c0.05,0,.1.01,0.149,0.01a1.206,1.206,0,0,0,1.027-.58l2.271-3.74,2.271,3.74a1.2,1.2,0,0,0,2.173-.27l2.753-9.08a1.181,1.181,0,0,0-.8-1.47,1.206,1.206,0,0,0-1.49.8l-1.974,6.51-1.9-3.14a1.2,1.2,0,0,0-2.053,0l-1.9,3.14-1.974-6.51a1.206,1.206,0,0,0-1.49-.8,1.187,1.187,0,0,0-.8,1.48l2.752,9.07A1.2,1.2,0,0,0,574.929,3999.08Zm25.932-11.39a1.2,1.2,0,0,0-1.49.79L597.4,3995l-1.9-3.14a1.2,1.2,0,0,0-2.053,0l-1.9,3.14-1.975-6.51a1.2,1.2,0,0,0-1.49-.8,1.182,1.182,0,0,0-.8,1.47l2.753,9.08a1.2,1.2,0,0,0,2.173.27l2.272-3.74,2.271,3.74a1.2,1.2,0,0,0,1.026.58c0.049,0,.1-0.01.149-0.01a1.2,1.2,0,0,0,1-.84l2.753-9.08A1.181,1.181,0,0,0,600.861,3987.69Zm-37.047,18.1a1.19,1.19,0,0,0-1.2-1.18h-6.383a1.19,1.19,0,0,0-1.2,1.18v6.3a1.192,1.192,0,0,0,1.2,1.19h6.383a1.192,1.192,0,0,0,1.2-1.19v-6.3Zm-2.394,5.12h-3.989v-3.94h3.989v3.94Zm1.2,4.73h-6.383a1.19,1.19,0,0,0-1.2,1.18v6.31a1.19,1.19,0,0,0,1.2,1.18h6.383a1.19,1.19,0,0,0,1.2-1.18v-6.31A1.19,1.19,0,0,0,562.617,4015.64Zm-1.2,6.31h-3.989v-3.94h3.989v3.94Zm39.1-14.19h-4.787a1.18,1.18,0,1,0,0,2.36h4.787A1.18,1.18,0,1,0,600.518,4007.76Zm-9.575,0H567.4a1.18,1.18,0,1,0,0,2.36h23.539A1.18,1.18,0,1,0,590.943,4007.76Zm9.575,11.03h-4.787a1.185,1.185,0,1,0,0,2.37h4.787A1.185,1.185,0,1,0,600.518,4018.79Zm-9.575,0H567.4a1.185,1.185,0,1,0,0,2.37h23.539A1.185,1.185,0,1,0,590.943,4018.79Z" transform="translate(-542 -3967)"/>
</svg>
