<svg 
 xmlns="http://www.w3.org/2000/svg"
 xmlns:xlink="http://www.w3.org/1999/xlink"
 width="110px" height="110px">
<defs>
<linearGradient id="PSgrad_0" x1="0%" x2="100%" y1="0%" y2="0%">
  <stop offset="0%" stop-color="rgb(23,100,227)" stop-opacity="1" />
  <stop offset="100%" stop-color="rgb(2,217,245)" stop-opacity="1" />
</linearGradient>

</defs>
<path fill-rule="evenodd"  fill="url(#PSgrad_0)"
d="M1320.34,3730.56h6.99v22.79h-38.09v-22.79h25.93v-3.27H1286v38.02h15.14l-1.07,5.42h-3.84V3774h24.11v-3.27h-3.84l-1.07-5.42h15.14v-38.02h-10.23v3.27Zm-16.97,40.17,1.08-5.42h7.67l1.07,5.42h-9.82Zm23.96-8.69h-38.09v-5.42h38.09v5.42Zm-31.2-19.21v-5.32h3.54v-3.27h-6.78v8.59h3.24Zm24.21,6.84h3.44v-3.27h-3.44v3.27Zm3.44-10.22h-3.44v3.27h3.44v-3.27Zm-10.33,10.22h3.44v-3.27h-3.44v3.27Zm82.55-22.38h-10.23v3.27h6.99v22.79h-38.09v-22.79h25.93v-3.27h-29.17v38.02h15.14l-1.07,5.42h-3.84V3774h24.11v-3.27h-3.84l-1.07-5.42H1396v-38.02Zm-27.19,43.44,1.07-5.42h7.67l1.07,5.42h-9.81Zm23.95-8.69h-38.09v-5.42h38.09v5.42Zm-31.2-19.21v-5.32h3.55v-3.27h-6.79v8.59h3.24Zm27.65,3.57h-3.44v3.27h3.44v-3.27Zm0-6.95h-3.44v3.27h3.44v-3.27Zm-10.33,10.22h3.45v-3.27h-3.45v3.27Zm-46.49-79.72v3.27h3.44v-3.27h-3.44Zm6.89,0v3.27h3.44v-3.27h-3.44Zm6.89,0v3.27h3.44v-3.27h-3.44Zm-18.95,10.22h27.55v-3.27h-27.55v3.27Zm44.87,43.54h3.25v-8.58h-32.72v-7.16h18.94V3690.8h-5.16v-3.68h5.16v-5.11h-3.24v1.84h-34.64v-10.63h5.17v-6.95h24.3v6.95h5.17v3.58h3.24v-6.85h-5.16V3663h-30.8v6.95h-5.16v17.17h5.16v3.68h-5.16v5.11h3.24v-1.84h34.64v10.63h-34.64v-3.58h-3.24v6.85h18.94v7.16h-32.72v8.58h3.25v-5.31h29.47v7.05h3.24v-7.05h29.47v5.31Zm-18.94-32.91h-24.3v-3.68h24.3v3.68Zm-13.77,41.6h3.24v-3.47h-3.24v3.47Zm0,6.95h3.24v-3.48h-3.24v3.48Z" transform="translate(-1286 -3663)"/>
</svg>
