<svg 
 xmlns="http://www.w3.org/2000/svg"
 xmlns:xlink="http://www.w3.org/1999/xlink"
 width="68px" height="68px">
<defs>
<linearGradient id="PSgrad_0" x1="0%" x2="100%" y1="0%" y2="0%">
  <stop offset="0%" stop-color="rgb(23,100,227)" stop-opacity="1" />
  <stop offset="100%" stop-color="rgb(2,217,245)" stop-opacity="1" />
</linearGradient>

</defs>
<path fill-rule="evenodd"  fill="url(#PSgrad_0)"
d="M992.858,3644.34h-3.4a1.13,1.13,0,1,0,0,2.26h3.4A1.13,1.13,0,1,0,992.858,3644.34Zm-50.993-31.73h9.066a1.135,1.135,0,0,0,0-2.27h-9.066A1.135,1.135,0,0,0,941.865,3612.61Zm0,4.53h9.066a1.135,1.135,0,0,0,0-2.27h-9.066A1.135,1.135,0,0,0,941.865,3617.14Zm9.066,2.27h-9.066a1.13,1.13,0,1,0,0,2.26h9.066A1.13,1.13,0,1,0,950.931,3619.41Zm-4.533,4.53a4.53,4.53,0,1,0,4.532,4.53A4.533,4.533,0,0,0,946.4,3623.94Zm0,6.8a2.27,2.27,0,1,1,2.266-2.27A2.271,2.271,0,0,1,946.4,3630.74Zm31.729-20.4h-9.066a1.135,1.135,0,0,0,0,2.27h9.066A1.135,1.135,0,0,0,978.127,3610.34Zm0,4.53h-9.066a1.135,1.135,0,0,0,0,2.27h9.066A1.135,1.135,0,0,0,978.127,3614.87Zm0,4.54h-9.066a1.13,1.13,0,1,0,0,2.26h9.066A1.13,1.13,0,1,0,978.127,3619.41Zm-4.533,4.53a4.53,4.53,0,1,0,4.533,4.53A4.533,4.533,0,0,0,973.594,3623.94Zm0,6.8a2.27,2.27,0,1,1,2.266-2.27A2.27,2.27,0,0,1,973.594,3630.74Zm11.332,13.6h-6.96a4.52,4.52,0,0,0-3.239-3.24v-3.56h4.533a4.534,4.534,0,0,0,4.532-4.54v-7.86a15.854,15.854,0,0,0-6.867-30.62h-0.016a19.265,19.265,0,0,0-37.177,4.49,12.908,12.908,0,0,0-5.926,1.54,13.422,13.422,0,0,0,2.393,25.22V3633a4.535,4.535,0,0,0,4.533,4.54h4.532v3.56a4.521,4.521,0,0,0-3.238,3.24H927.134a1.13,1.13,0,1,0,0,2.26h14.892a4.511,4.511,0,0,0,8.744,0h18.452a4.511,4.511,0,0,0,8.744,0h6.96A1.13,1.13,0,1,0,984.926,3644.34Zm-3.4-11.34a2.264,2.264,0,0,1-2.266,2.27H967.928a2.264,2.264,0,0,1-2.266-2.27v-22.66a2.27,2.27,0,0,1,2.266-2.27H979.26a2.27,2.27,0,0,1,2.266,2.27V3633ZM936.2,3610.34v13.07a11.148,11.148,0,0,1-1.382-20.83,9.715,9.715,0,0,1,5.849-1.25,1.163,1.163,0,0,0,.84-0.27,1.144,1.144,0,0,0,.391-0.8,17,17,0,0,1,33.157-4.17,1.145,1.145,0,0,0,1.234.78c0.269-.04.54-0.07,0.811-0.09a13.452,13.452,0,0,1,14.455,11.36,13.6,13.6,0,0,1-7.762,14.55v-12.35a4.532,4.532,0,0,0-4.532-4.53H967.928a4.532,4.532,0,0,0-4.532,4.53v13.6h-6.8v-13.6a4.533,4.533,0,0,0-4.533-4.53H940.732A4.533,4.533,0,0,0,936.2,3610.34Zm4.533,24.93a2.264,2.264,0,0,1-2.266-2.27v-22.66a2.27,2.27,0,0,1,2.266-2.27h11.332a2.271,2.271,0,0,1,2.266,2.27V3633a2.264,2.264,0,0,1-2.266,2.27H940.732Zm5.666,12.46a2.265,2.265,0,1,1,2.266-2.26A2.262,2.262,0,0,1,946.4,3647.73Zm22.824-3.39H950.77a4.52,4.52,0,0,0-3.239-3.24v-3.56h4.533A4.534,4.534,0,0,0,956.6,3633v-6.8h6.8v6.8a4.535,4.535,0,0,0,4.533,4.54h4.533v3.56A4.52,4.52,0,0,0,969.222,3644.34Zm4.372,3.39a2.265,2.265,0,1,1,2.266-2.26A2.261,2.261,0,0,1,973.594,3647.73Z" transform="translate(-926 -3582)"/>
</svg>
