<svg 
 xmlns="http://www.w3.org/2000/svg"
 xmlns:xlink="http://www.w3.org/1999/xlink"
 width="63px" height="64px">
<defs>
<linearGradient id="PSgrad_0" x1="0%" x2="100%" y1="0%" y2="0%">
  <stop offset="0%" stop-color="rgb(23,100,227)" stop-opacity="1" />
  <stop offset="100%" stop-color="rgb(2,217,245)" stop-opacity="1" />
</linearGradient>

</defs>
<path fill-rule="evenodd"  fill="url(#PSgrad_0)"
d="M577.3,3609a1.25,1.25,0,1,0,1.23,1.25A1.241,1.241,0,0,0,577.3,3609Zm0,15a1.25,1.25,0,1,0,1.23,1.25A1.241,1.241,0,0,0,577.3,3624Zm0,15a1.25,1.25,0,1,0,1.23,1.25A1.241,1.241,0,0,0,577.3,3639Zm23.625-32.5a3.75,3.75,0,1,0,3.691,3.75A3.724,3.724,0,0,0,600.926,3606.5Zm0,5a1.25,1.25,0,1,1,1.23-1.25A1.241,1.241,0,0,1,600.926,3611.5Zm-38.391-2.5h-4.922a1.25,1.25,0,0,0,0,2.5h4.922A1.25,1.25,0,0,0,562.535,3609Zm9.844,0h-4.922a1.25,1.25,0,0,0,0,2.5h4.922A1.25,1.25,0,0,0,572.379,3609Zm28.547,12.5a3.75,3.75,0,1,0,3.691,3.75A3.724,3.724,0,0,0,600.926,3621.5Zm0,5a1.25,1.25,0,1,1,1.23-1.25A1.241,1.241,0,0,1,600.926,3626.5Zm-38.391-2.5h-4.922a1.25,1.25,0,0,0,0,2.5h4.922A1.25,1.25,0,0,0,562.535,3624Zm9.844,0h-4.922a1.25,1.25,0,0,0,0,2.5h4.922A1.25,1.25,0,0,0,572.379,3624Zm28.547,12.5a3.75,3.75,0,1,0,3.691,3.75A3.724,3.724,0,0,0,600.926,3636.5Zm0,5a1.25,1.25,0,1,1,1.23-1.25A1.241,1.241,0,0,1,600.926,3641.5ZM612,3604.52a8.916,8.916,0,0,0-.9-3.89l-5.913-13.51a0.3,0.3,0,0,1-.023-0.05,3.662,3.662,0,0,0-3.3-2.07H559.134a3.662,3.662,0,0,0-3.3,2.07,0.234,0.234,0,0,1-.024.05l-5.912,13.51a8.917,8.917,0,0,0-.9,3.89v10.73a3.785,3.785,0,0,1,0,5v10a3.785,3.785,0,0,1,0,5v10a3.724,3.724,0,0,0,3.691,3.75h55.618a3.724,3.724,0,0,0,3.691-3.75v-10a3.785,3.785,0,0,1,0-5v-10a3.785,3.785,0,0,1,0-5v-10.73Zm-53.956-16.35a1.229,1.229,0,0,1,1.09-.67h42.732a1.229,1.229,0,0,1,1.09.67l5.834,13.33H552.21Zm51.5,57.08a1.241,1.241,0,0,1-1.23,1.25H552.691a1.241,1.241,0,0,1-1.23-1.25v-10a1.241,1.241,0,0,1,1.23-1.25h55.618a1.241,1.241,0,0,1,1.23,1.25v10Zm0-15a1.241,1.241,0,0,1-1.23,1.25H552.691a1.241,1.241,0,0,1-1.23-1.25v-10a1.241,1.241,0,0,1,1.23-1.25h55.618a1.241,1.241,0,0,1,1.23,1.25v10Zm0-15a1.241,1.241,0,0,1-1.23,1.25H552.691a1.241,1.241,0,0,1-1.23-1.25v-10.73c0-.17.01-0.35,0.024-0.52h58.03c0.014,0.17.024,0.35,0.024,0.52v10.73Zm-47,23.75h-4.922a1.25,1.25,0,0,0,0,2.5h4.922A1.25,1.25,0,0,0,562.535,3639Zm9.844,0h-4.922a1.25,1.25,0,0,0,0,2.5h4.922A1.25,1.25,0,0,0,572.379,3639Z" transform="translate(-549 -3585)"/>
</svg>
