<?xml version="1.0" encoding="UTF-8"?>
<svg width="221.11" height="68.689" version="1.1" viewBox="0 0 221.03 67.109" xmlns="http://www.w3.org/2000/svg" xmlns:cc="http://creativecommons.org/ns#" xmlns:dc="http://purl.org/dc/elements/1.1/" xmlns:rdf="http://www.w3.org/1999/02/22-rdf-syntax-ns#" xmlns:xlink="http://www.w3.org/1999/xlink">
 <metadata>
  <rdf:RDF>
   <cc:Work rdf:about="">
    <dc:format>image/svg+xml</dc:format>
    <dc:type rdf:resource="http://purl.org/dc/dcmitype/StillImage"/>
    <dc:title/>
   </cc:Work>
  </rdf:RDF>
 </metadata>
 <defs>
  <linearGradient id="linearGradient4423" x1="1262" x2="1458" y1="460.1" y2="406.7" gradientTransform="matrix(1.092 0 0 1.092 -1375.4 -440.43)" gradientUnits="userSpaceOnUse">
   <stop stop-color="#c70000" offset="0"/>
   <stop stop-color="#e04b4b" offset=".2452"/>
   <stop stop-color="#c20000" offset=".5615"/>
   <stop stop-color="#b10000" offset=".7764"/>
   <stop stop-color="#de0000" offset="1"/>
  </linearGradient>
 </defs>
 <path d="m141.89 35.867h17.7c4 0 4.9-2.51 7-5.74 1.7-2.71 3.6-5.74 5.3-8.05-3.5.3-7.6.3-13.1.1-2.6 2.11-2.1 5.34-1.2 7.65-.1.3-.2.5-.3.81-2.4-.91-4.3-2.32-4.8-5.64-.4-2.22-.3-3.63.8-5.44.8-1.31 1.5-2.52 2.1-3.72h32.9c-.4.6-.9 1.1-1.3 1.71-1.2 1.71-1.3 2.01-3.3 2.41-2.3.51-4.5 1.11-7 1.51-2.6 3.23-5 7.45-7.4 10.88-2.6 4.03-4.4 6.84-9.4 6.84h-20.5c.8-1.1 1.6-2.21 2.5-3.32zm-31.9-35.943-7.4 18.623h9.2l5.3-9.66h20.6c-1.8 11.28-36.3 43.39-36.3 57.59h16c0-12.69 32.7-41.18 37.2-59 .7-2.52.5-4.935.5-7.553zm-76.4-.202c13.19 0 20.34 15.205 16.01 33.835-4.43 18.62-18.73 33.83-31.82 33.83-13.19 0-20.34-15.21-16.01-33.83 4.43-18.63 18.73-33.835 31.82-33.835zm1.61 6.045c-5.04 0-11.78 10.67-17.92 27.59-6.15 16.81-7.36 27.99-2.32 27.99 5.03 0 12.89-11.38 19.03-27.79 6.14-16.42 6.24-27.79 1.21-27.79zm48.13-6.045c13.06 0 20.26 15.205 15.86 33.835-4.4 18.62-18.58 33.83-31.67 33.83s-20.24-15.21-15.81-33.83c4.33-18.63 18.53-33.835 31.62-33.835zm1.2 6.045c-4.93 0-11.68 10.67-17.82 27.59-6.04 16.81-7.25 27.99-2.21 27.99 4.93 0 12.78-11.38 18.93-27.79 6.06-16.42 6.16-27.79 1.1-27.79zm74.46-5.843h61.4c.6 3.423-.6 6.743-4.1 10.373h-25.6l-1 3.12h-33.1c.9-2.12 1.6-4.13 2.1-5.94.6-2.52.4-4.935.3-7.553z" fill="url(#linearGradient4423)" fill-rule="evenodd" stroke="#d50000"/>
 <path d="m33.596-.58182c-6.62 0-13.51 3.845-19.3 9.999-5.79 6.16-10.49 14.64-12.72 23.99-2.17 9.35-1.47 17.86 1.45 24.04 2.92 6.19 8.09 10.06 14.77 10.06 6.62 0 13.51-3.85 19.3-10.01 5.79-6.15 10.49-14.64 12.72-23.99 2.17-9.34 1.47-17.85-1.45-24.04-2.92-6.18-8.09-10.049-14.77-10.049zm49.75 0c-6.63 0-13.5 3.845-19.25 9.999-5.76 6.16-10.39 14.64-12.57 23.99-2.22 9.35-1.55 17.86 1.35 24.04 2.89 6.19 8.04 10.06 14.66 10.06 6.63 0 13.49-3.85 19.25-10.01 5.8-6.15 10.4-14.64 12.7-23.99 2.1-9.34 1.4-17.85-1.5-24.04-2.9-6.18-8-10.049-14.64-10.049zm26.54.205-.1.128-7.4 18.636-.1.28h9.7v-.11l5.2-9.56h20.2c-.5 2.73-2.9 6.75-6.3 11.44-3.5 4.81-8 10.32-12.4 15.93s-8.8 11.31-12.1 16.51c-3.2 5.2-5.4 9.88-5.4 13.51v.21h16.4v-.21c0-3.08 2-7.23 5.1-11.95 3.2-4.72 7.4-10.03 11.8-15.5 8.7-10.93 18-22.5 20.3-31.5.8-2.56.5-5.002.5-7.609v-.205h-45.3zm48.9 0v.218c.1 2.623.3 5.016-.3 7.496-.4 1.79-1.1 3.79-2 5.9l-.2.29h33.5l.1-.14.9-2.98h25.7v-.06c3.5-3.66 4.7-7.07 4.1-10.557v-.167h-61.6zm-125.19.205c6.52 0 11.53 3.749 14.4 9.819 2.87 6.08 3.58 14.48 1.42 23.76-2.21 9.28-6.88 17.71-12.62 23.81-5.73 6.1-12.54 9.88-19 9.88-6.52 0-11.53-3.75-14.4-9.83-2.87-6.07-3.58-14.48-1.42-23.76 2.21-9.27 6.88-17.7 12.62-23.8 5.73-6.11 12.54-9.879 19-9.879zm49.75 0c6.44 0 11.44 3.749 14.24 9.819 2.9 6.08 3.6 14.48 1.5 23.76-2.2 9.28-6.9 17.71-12.6 23.81-5.71 6.1-12.48 9.88-18.95 9.88-6.46 0-11.45-3.75-14.29-9.83-2.85-6.07-3.53-14.48-1.32-23.76 2.16-9.27 6.77-17.7 12.47-23.8 5.7-6.11 12.48-9.879 18.95-9.879zm26.84.205h44.7c0 2.545.2 4.894-.5 7.304-2.2 8.82-11.5 20.41-20.2 31.35-4.4 5.47-8.7 10.78-11.8 15.52-3.1 4.65-5.1 8.75-5.2 11.98h-15.6c.1-3.45 2.2-8.02 5.4-13.09 3.2-5.17 7.6-10.87 12-16.47 4.5-5.61 9-11.12 12.4-15.95 3.5-4.82 6.1-8.95 6.5-11.86l.1-.23h-21l-.1.1-5.2 9.57h-8.8zm49 0h61c.5 3.274-.6 6.454-3.9 9.964h-25.8v.14l-1 2.99h-32.5c.8-2.02 1.5-3.95 1.9-5.69v-.01c.6-2.49.4-4.865.3-7.394zm-123.97 5.434c-1.33 0-2.75.7-4.2 1.98-1.46 1.29-2.98 3.16-4.53 5.56-3.09 4.8-6.31 11.72-9.38 20.18-3.08 8.42-4.93 15.43-5.37 20.36-.22 2.46-.09 4.41.42 5.77.52 1.36 1.49 2.14 2.82 2.14 1.34 0 2.81-.75 4.37-2.09s3.2-3.28 4.89-5.73c3.37-4.92 6.89-11.88 9.96-20.1 3.08-8.22 4.64-15.19 4.81-20.12.08-2.47-.19-4.43-.81-5.8-.62-1.37-1.65-2.15-2.98-2.15zm49.33 0c-1.31 0-2.69.7-4.14 1.98-1.44 1.29-2.95 3.16-4.49 5.56-3.09 4.8-6.3 11.72-9.38 20.18-3.02 8.42-4.84 15.43-5.27 20.36-.22 2.46-.09 4.41.43 5.77s1.49 2.14 2.82 2.14c1.31 0 2.76-.75 4.3-2.09 1.55-1.34 3.2-3.29 4.88-5.75 3.36-4.91 6.87-11.86 9.94-20.08 3.05-8.22 4.55-15.19 4.75-20.12 0-2.47-.2-4.43-.9-5.8-.6-1.37-1.6-2.15-2.94-2.15zm-49.33.41c1.18 0 2.03.64 2.61 1.92.58 1.27.85 3.18.77 5.61-.17 4.86-1.71 11.78-4.78 19.98-3.07 8.19-6.57 15.13-9.91 20-1.68 2.44-3.31 4.37-4.83 5.68-1.52 1.3-2.92 1.98-4.1 1.98s-1.95-.62-2.43-1.88-.62-3.15-.4-5.59c.44-4.86 2.27-11.85 5.34-20.24 3.07-8.45 6.28-15.34 9.35-20.1 1.54-2.38 3.04-4.24 4.46-5.48 1.41-1.25 2.73-1.88 3.92-1.88zm49.33 0c1.14 0 2.04.64 2.64 1.92.6 1.27.8 3.18.8 5.61-.2 4.86-1.7 11.78-4.73 19.98-3.07 8.19-6.57 15.13-9.9 20-1.67 2.44-3.3 4.37-4.81 5.68-1.5 1.3-2.88 1.98-4.03 1.98-1.18 0-1.95-.62-2.43-1.88s-.63-3.15-.41-5.59c.42-4.86 2.23-11.85 5.25-20.24 3.06-8.45 6.28-15.34 9.33-20.1 1.53-2.38 3.02-4.24 4.42-5.48 1.4-1.25 2.71-1.88 3.87-1.88zm70.74 9.65v.12c-.6 1.2-1.3 2.41-2.1 3.71-1.2 1.85-1.3 3.34-.9 5.57v.02c.5 3.38 2.5 4.87 5 5.79l.2.07.1-.2c0-.29.2-.49.3-.81v-.14c-.5-1.14-.8-2.5-.8-3.82.1-1.29.6-2.53 1.8-3.54 5.2.19 9.2.17 12.6-.09-1.6 2.27-3.4 5.12-5 7.72-1.1 1.62-1.9 3.04-2.8 4.05-1 1-2.2 1.6-4.1 1.6h-17.4v-.37l-.4.44c-.9 1.12-1.7 2.23-2.5 3.33l-.3.32h20.9c2.5 0 4.3-.72 5.7-1.96 1.5-1.23 2.6-2.96 3.9-4.97v-.01c2.4-3.42 4.7-7.62 7.3-10.81 2.5-.4 4.7-.99 7-1.48 1-.21 1.6-.39 2-.76.5-.37.8-.89 1.4-1.74.4-.6.8-1.1 1.2-1.72l.3-.32h-33.2zm.3.41h32.3c-.4.46-.7.9-1 1.4-.6.86-.9 1.34-1.3 1.65s-.9.48-1.9.68c-2.3.5-4.5 1.11-7 1.51l-.1.01-.1.07c-2.6 3.24-4.9 7.46-7.3 10.87v.01c-1.3 2.02-2.4 3.72-3.8 4.9s-3 1.85-5.5 1.85h-20c.7-.96 1.4-1.94 2.2-2.9h17.5c2 0 3.3-.67 4.4-1.73 1-1.07 1.7-2.5 2.8-4.1v-.01c1.7-2.72 3.6-5.74 5.3-8.05l.3-.36-.5.04c-3.5.3-7.6.31-13.1.11l-.1-.02-.1.05c-1.3 1.1-1.8 2.51-1.9 3.91 0 1.37.3 2.75.7 3.91 0 .18-.1.35-.2.52-2.2-.89-4-2.23-4.5-5.39-.4-2.19-.3-3.51.8-5.29.8-1.27 1.5-2.46 2.1-3.64z" color="#000000" fill="#8b0000" fill-rule="evenodd"/>
</svg>
