<svg xmlns="http://www.w3.org/2000/svg" width="35.125" height="34.844" viewBox="0 0 35.125 34.844">
  <metadata><?xpacket begin="﻿" id="W5M0MpCehiHzreSzNTczkc9d"?>
<x:xmpmeta xmlns:x="adobe:ns:meta/" x:xmptk="Adobe XMP Core 5.6-c138 79.159824, 2016/09/14-01:09:01        ">
   <rdf:RDF xmlns:rdf="http://www.w3.org/1999/02/22-rdf-syntax-ns#">
      <rdf:Description rdf:about=""/>
   </rdf:RDF>
</x:xmpmeta>
                                                                                                    
                                                                                                    
                                                                                                    
                                                                                                    
                                                                                                    
                                                                                                    
                                                                                                    
                                                                                                    
                                                                                                    
                                                                                                    
                                                                                                    
                                                                                                    
                                                                                                    
                                                                                                    
                                                                                                    
                                                                                                    
                                                                                                    
                                                                                                    
                                                                                                    
                                                                                                    
                           
<?xpacket end="w"?></metadata>
<defs>
    <style>
      .cls-1 {
        fill: #0063f8;
        fill-rule: evenodd;
      }
    </style>
  </defs>
  <path id="Forma_1" data-name="Forma 1" class="cls-1" d="M408.723,743.8a17.142,17.142,0,0,0-9.352-9.243,17.379,17.379,0,0,0-6.838-1.392,17.666,17.666,0,0,0-16.15,10.635,17.288,17.288,0,0,0,0,13.551,17.61,17.61,0,0,0,32.34,0A17.073,17.073,0,0,0,408.723,743.8Zm-2.8,14.465a15.514,15.514,0,0,1-13.385,7.643,14.964,14.964,0,0,1-5.992-1.22,15.731,15.731,0,0,1-4.916-3.259,15.468,15.468,0,0,1-3.284-4.9,15.31,15.31,0,0,1,.845-13.627,15.36,15.36,0,0,1,5.627-5.584,15.544,15.544,0,0,1,15.459,0,15.4,15.4,0,0,1,5.646,5.584A15.258,15.258,0,0,1,405.919,758.261Zm-12.272-7.852v-9.872a1.1,1.1,0,0,0-1.114-1.068,1.079,1.079,0,0,0-1.056,1.068v10.024a0.86,0.86,0,0,1,.039.153,0.992,0.992,0,0,0,.288.858l5.742,5.7a1.1,1.1,0,0,0,1.479,0,1.023,1.023,0,0,0,0-1.486Z" transform="translate(-375 -733.156)"/>
</svg>
