<?xml version="1.0" standalone="no"?><!-- Generator: Gravit.io --><svg xmlns="http://www.w3.org/2000/svg" xmlns:xlink="http://www.w3.org/1999/xlink" style="isolation:isolate" viewBox="0 0 400 68.689" width="400" height="68.689"><defs><clipPath id="_clipPath_7gOWIFGW1ai0RXO8ozShBtNFcYh96jwN"><rect width="400" height="68.689"/></clipPath></defs><g clip-path="url(#_clipPath_7gOWIFGW1ai0RXO8ozShBtNFcYh96jwN)"><g><linearGradient id="_lgradient_0" x1="0.00998974684374386" y1="0.9203753787039093" x2="0.9827217628982333" y2="0.6553555335135535" gradientTransform="matrix(-100.014,0,0,67.689,220.419,0.408)" gradientUnits="userSpaceOnUse"><stop offset="0%" stop-opacity="1" style="stop-color:rgb(199,0,0)"/><stop offset="24.52%" stop-opacity="1" style="stop-color:rgb(224,75,75)"/><stop offset="56.15%" stop-opacity="1" style="stop-color:rgb(194,0,0)"/><stop offset="77.64%" stop-opacity="1" style="stop-color:rgb(177,0,0)"/><stop offset="100%" stop-opacity="1" style="stop-color:rgb(222,0,0)"/></linearGradient><path d=" M 187.323 0.408 C 174.129 0.408 166.976 15.619 171.308 34.255 C 175.739 52.882 190.044 68.098 203.139 68.098 C 216.334 68.098 223.486 52.882 219.155 34.255 C 214.723 15.619 200.418 0.408 187.323 0.408 Z  M 185.713 6.455 C 190.755 6.455 197.497 17.129 203.639 34.055 C 209.792 50.871 211.002 62.055 205.96 62.055 C 200.928 62.055 193.065 50.671 186.923 34.255 C 180.781 17.829 180.681 6.455 185.713 6.455 Z  M 137.565 0.408 C 124.501 0.408 117.298 15.619 121.7 34.255 C 126.101 52.882 140.286 68.098 153.381 68.098 C 166.476 68.098 173.628 52.882 169.197 34.255 C 164.865 15.619 150.66 0.408 137.565 0.408 Z  M 136.365 6.455 C 141.297 6.455 148.049 17.129 154.191 34.055 C 160.234 50.871 161.444 62.055 156.402 62.055 C 151.47 62.055 143.618 50.671 137.465 34.255 C 131.403 17.829 131.303 6.455 136.365 6.455 L 136.365 6.455 Z " fill-rule="evenodd" fill="url(#_lgradient_0)" vector-effect="non-scaling-stroke" stroke-width="1" stroke="rgb(213,0,0)" stroke-linejoin="miter" stroke-linecap="butt" stroke-miterlimit="4"/></g><linearGradient id="_lgradient_1" x1="0.00998974684374386" y1="0.9203753787039093" x2="0.9827217628982333" y2="0.6553555335135535" gradientTransform="matrix(-119.191,0,0,66.577,327.531,1.59)" gradientUnits="userSpaceOnUse"><stop offset="0%" stop-opacity="1" style="stop-color:rgb(199,0,0)"/><stop offset="24.52%" stop-opacity="1" style="stop-color:rgb(224,75,75)"/><stop offset="56.15%" stop-opacity="1" style="stop-color:rgb(194,0,0)"/><stop offset="77.64%" stop-opacity="1" style="stop-color:rgb(177,0,0)"/><stop offset="100%" stop-opacity="1" style="stop-color:rgb(222,0,0)"/></linearGradient><path d=" M 287.016 37.546 L 269.31 37.546 C 265.308 37.546 264.408 35.035 262.307 31.804 C 260.606 29.093 258.706 26.062 257.005 23.751 C 260.506 24.051 264.608 24.051 270.11 23.851 C 272.711 25.962 272.211 29.193 271.31 31.504 C 271.41 31.804 271.51 32.004 271.61 32.314 C 274.011 31.404 275.912 29.993 276.412 26.672 C 276.812 24.451 276.712 23.041 275.612 21.23 C 274.812 19.92 274.111 18.709 273.511 17.509 L 240.599 17.509 C 240.999 18.109 241.499 18.609 241.9 19.22 C 243.1 20.93 243.2 21.23 245.201 21.63 C 247.502 22.141 249.702 22.741 252.203 23.141 C 254.804 26.372 257.205 30.594 259.606 34.025 C 262.207 38.056 264.008 40.867 269.009 40.867 L 289.517 40.867 C 288.717 39.767 287.916 38.657 287.016 37.546 L 287.016 37.546 Z  M 318.928 1.59 L 291.217 10.556 C 293.018 21.84 327.531 53.962 327.531 68.167 L 311.525 68.167 C 311.525 55.473 278.813 26.972 274.311 9.146 C 273.611 6.625 273.811 4.209 273.811 1.59 L 318.928 1.59 Z  M 329.731 35.235 M 344.397 7.435 M 269.91 1.59 L 208.488 1.59 C 207.887 5.014 209.088 8.336 212.589 11.967 L 238.198 11.967 L 239.199 15.088 L 272.311 15.088 C 271.41 12.967 270.71 10.957 270.21 9.146 C 269.61 6.625 269.81 4.209 269.91 1.59 L 269.91 1.59 Z " fill-rule="evenodd" fill="url(#_lgradient_1)" vector-effect="non-scaling-stroke" stroke-width="1" stroke="rgb(213,0,0)" stroke-linejoin="miter" stroke-linecap="butt" stroke-miterlimit="4"/><path d=" M 319.028 1.099 L 319.128 1.227 L 291.518 10.477 C 292.018 13.208 294.419 17.229 297.82 21.921 C 301.321 26.733 305.823 32.245 310.224 37.857 C 314.626 43.469 319.028 49.171 322.329 54.373 C 325.53 59.575 327.731 64.256 327.731 67.888 L 327.731 68.098 L 311.325 68.098 L 311.325 67.888 C 311.325 64.806 309.324 60.655 306.223 55.933 C 303.022 51.212 298.82 45.9 294.419 40.428 C 285.715 29.494 276.412 17.92 274.111 8.916 C 273.311 6.355 273.611 3.912 273.611 1.305 L 273.611 1.099 L 318.928 1.099 L 319.028 1.099 Z  M 270.11 1.099 L 270.11 1.318 C 270.01 3.941 269.81 6.335 270.41 8.816 C 270.81 10.607 271.51 12.608 272.411 14.718 L 272.611 15.008 L 239.099 15.008 L 238.999 14.868 L 238.098 11.887 L 212.389 11.887 L 212.389 11.827 C 208.888 8.166 207.687 4.755 208.287 1.266 L 208.287 1.099 L 269.91 1.099 L 270.11 1.099 Z  M 318.727 1.51 L 274.011 1.51 C 274.011 4.055 273.811 6.405 274.511 8.816 C 276.712 17.639 286.016 29.234 294.719 40.178 C 299.12 45.65 303.422 50.961 306.523 55.703 C 309.624 60.355 311.625 64.456 311.725 67.688 L 327.331 67.688 C 327.231 64.236 325.13 59.665 321.929 54.593 C 318.727 49.421 314.326 43.719 309.924 38.117 C 305.423 32.505 300.921 26.993 297.52 22.161 C 294.018 17.339 291.418 13.208 291.017 10.297 L 290.917 10.067 L 318.727 1.51 Z  M 269.71 1.51 L 208.688 1.51 C 208.187 4.785 209.288 7.966 212.589 11.477 L 238.398 11.477 L 238.398 11.617 L 239.399 14.608 L 271.91 14.608 C 271.11 12.588 270.41 10.657 270.01 8.916 L 270.01 8.906 C 269.41 6.415 269.61 4.039 269.71 1.51 Z  M 273.611 17.009 L 273.611 17.129 C 274.211 18.33 274.912 19.54 275.712 20.841 C 276.912 22.691 277.012 24.182 276.612 26.413 L 276.612 26.433 C 276.112 29.814 274.111 31.304 271.61 32.225 L 271.41 32.295 L 271.31 32.095 C 271.31 31.805 271.11 31.604 271.01 31.284 L 271.01 31.144 C 271.51 30.004 271.81 28.643 271.81 27.323 C 271.71 26.032 271.21 24.792 270.01 23.782 C 264.808 23.972 260.806 23.952 257.405 23.692 C 259.006 25.962 260.806 28.813 262.407 31.414 C 263.507 33.035 264.308 34.455 265.208 35.466 C 266.208 36.466 267.409 37.066 269.31 37.066 L 286.716 37.066 L 286.716 36.696 L 287.116 37.136 C 288.016 38.257 288.817 39.367 289.617 40.468 L 289.917 40.788 L 269.009 40.788 C 266.509 40.788 264.708 40.068 263.307 38.827 C 261.807 37.597 260.706 35.866 259.406 33.855 L 259.406 33.845 C 257.005 30.424 254.704 26.223 252.103 23.031 C 249.602 22.631 247.402 22.041 245.101 21.551 C 244.1 21.341 243.5 21.161 243.1 20.791 C 242.6 20.42 242.3 19.9 241.7 19.05 C 241.299 18.45 240.899 17.95 240.499 17.329 L 240.199 17.009 L 273.411 17.009 L 273.611 17.009 Z  M 273.311 17.419 L 240.999 17.419 C 241.399 17.88 241.7 18.32 242 18.82 C 242.6 19.68 242.9 20.16 243.3 20.47 C 243.7 20.781 244.2 20.951 245.201 21.151 C 247.502 21.651 249.702 22.261 252.203 22.661 L 252.303 22.671 L 252.403 22.741 C 255.004 25.982 257.305 30.204 259.706 33.615 L 259.706 33.625 C 261.007 35.646 262.107 37.347 263.507 38.527 C 264.908 39.707 266.509 40.378 269.009 40.378 L 289.017 40.378 C 288.316 39.417 287.616 38.437 286.816 37.477 L 269.31 37.477 C 267.309 37.477 266.008 36.806 264.908 35.746 C 263.908 34.676 263.207 33.245 262.107 31.644 L 262.107 31.634 C 260.406 28.913 258.506 25.892 256.805 23.582 L 256.505 23.221 L 257.005 23.261 C 260.506 23.562 264.608 23.572 270.11 23.371 L 270.21 23.351 L 270.31 23.401 C 271.61 24.502 272.111 25.912 272.211 27.313 C 272.211 28.683 271.91 30.064 271.51 31.224 C 271.51 31.404 271.61 31.574 271.71 31.745 C 273.911 30.854 275.712 29.514 276.212 26.353 C 276.612 24.162 276.512 22.841 275.412 21.061 C 274.611 19.79 273.911 18.6 273.311 17.419 L 273.311 17.419 Z " fill-rule="evenodd" fill="rgb(139,0,0)"/></g></svg>