<?xml version="1.0" standalone="no"?><!-- Generator: Gravit.io --><svg xmlns="http://www.w3.org/2000/svg" xmlns:xlink="http://www.w3.org/1999/xlink" style="isolation:isolate" viewBox="0 0 208.126 68.759" width="208.126" height="68.759"><defs><clipPath id="_clipPath_ZDL5gbW3wqcmgOL6x2oDQbpl46RDisXi"><rect width="208.126" height="68.759"/></clipPath></defs><g clip-path="url(#_clipPath_ZDL5gbW3wqcmgOL6x2oDQbpl46RDisXi)"><g><linearGradient id="_lgradient_2" x1="0.00998974684374386" y1="0.9203753787039093" x2="0.9827217628982333" y2="0.6553555335135535" gradientTransform="matrix(-100.014,0,0,67.689,100.514,0.5)" gradientUnits="userSpaceOnUse"><stop offset="0%" stop-opacity="1" style="stop-color:rgb(199,0,0)"/><stop offset="24.52%" stop-opacity="1" style="stop-color:rgb(224,75,75)"/><stop offset="56.15%" stop-opacity="1" style="stop-color:rgb(194,0,0)"/><stop offset="77.64%" stop-opacity="1" style="stop-color:rgb(177,0,0)"/><stop offset="100%" stop-opacity="1" style="stop-color:rgb(222,0,0)"/></linearGradient><path d=" M 67.418 0.5 C 54.224 0.5 47.071 15.711 51.403 34.347 C 55.834 52.974 70.139 68.19 83.234 68.19 C 96.429 68.19 103.581 52.974 99.25 34.347 C 94.818 15.711 80.513 0.5 67.418 0.5 Z  M 65.808 6.547 C 70.85 6.547 77.592 17.221 83.734 34.147 C 89.886 50.963 91.097 62.147 86.055 62.147 C 81.023 62.147 73.16 50.763 67.018 34.347 C 60.876 17.921 60.776 6.547 65.808 6.547 Z  M 17.66 0.5 C 4.596 0.5 -2.607 15.711 1.795 34.347 C 6.196 52.974 20.381 68.19 33.476 68.19 C 46.571 68.19 53.723 52.974 49.292 34.347 C 44.96 15.711 30.755 0.5 17.66 0.5 Z  M 16.46 6.547 C 21.392 6.547 28.144 17.221 34.286 34.147 C 40.329 50.963 41.539 62.147 36.497 62.147 C 31.565 62.147 23.713 50.763 17.56 34.347 C 11.498 17.921 11.398 6.547 16.46 6.547 L 16.46 6.547 Z " fill-rule="evenodd" fill="url(#_lgradient_2)" vector-effect="non-scaling-stroke" stroke-width="1" stroke="rgb(213,0,0)" stroke-linejoin="miter" stroke-linecap="butt" stroke-miterlimit="4"/></g><linearGradient id="_lgradient_3" x1="0.00998974684374386" y1="0.9203753787039093" x2="0.9827217628982333" y2="0.6553555335135535" gradientTransform="matrix(-119.191,0,0,66.577,207.626,1.682)" gradientUnits="userSpaceOnUse"><stop offset="0%" stop-opacity="1" style="stop-color:rgb(199,0,0)"/><stop offset="24.52%" stop-opacity="1" style="stop-color:rgb(224,75,75)"/><stop offset="56.15%" stop-opacity="1" style="stop-color:rgb(194,0,0)"/><stop offset="77.64%" stop-opacity="1" style="stop-color:rgb(177,0,0)"/><stop offset="100%" stop-opacity="1" style="stop-color:rgb(222,0,0)"/></linearGradient><path d=" M 167.111 37.638 L 149.404 37.638 C 145.403 37.638 144.503 35.127 142.402 31.896 C 140.701 29.185 138.801 26.154 137.1 23.843 C 140.601 24.143 144.703 24.143 150.205 23.943 C 152.806 26.054 152.306 29.285 151.405 31.596 C 151.505 31.896 151.605 32.096 151.705 32.406 C 154.106 31.496 156.007 30.085 156.507 26.764 C 156.907 24.543 156.807 23.133 155.707 21.322 C 154.906 20.012 154.206 18.801 153.606 17.601 L 120.694 17.601 C 121.094 18.201 121.594 18.701 121.995 19.312 C 123.195 21.022 123.295 21.322 125.296 21.722 C 127.597 22.233 129.797 22.833 132.298 23.233 C 134.899 26.464 137.3 30.686 139.701 34.117 C 142.302 38.148 144.103 40.959 149.104 40.959 L 169.612 40.959 C 168.811 39.859 168.011 38.749 167.111 37.638 L 167.111 37.638 Z  M 199.022 1.682 L 171.312 10.648 C 173.113 21.932 207.626 54.054 207.626 68.259 L 191.62 68.259 C 191.62 55.565 158.908 27.064 154.406 9.238 C 153.706 6.717 153.906 4.301 153.906 1.682 L 199.022 1.682 Z  M 209.826 35.327 M 224.492 7.527 M 150.005 1.682 L 88.582 1.682 C 87.982 5.106 89.183 8.428 92.684 12.059 L 118.293 12.059 L 119.294 15.18 L 152.406 15.18 C 151.505 13.059 150.805 11.049 150.305 9.238 C 149.705 6.717 149.905 4.301 150.005 1.682 L 150.005 1.682 Z " fill-rule="evenodd" fill="url(#_lgradient_3)" vector-effect="non-scaling-stroke" stroke-width="1" stroke="rgb(213,0,0)" stroke-linejoin="miter" stroke-linecap="butt" stroke-miterlimit="4"/><path d=" M 199.122 1.191 L 199.222 1.319 L 171.613 10.569 C 172.113 13.3 174.514 17.321 177.915 22.013 C 181.416 26.825 185.918 32.337 190.319 37.949 C 194.721 43.561 199.122 49.263 202.424 54.465 C 205.625 59.667 207.826 64.348 207.826 67.98 L 207.826 68.19 L 191.42 68.19 L 191.42 67.98 C 191.42 64.898 189.419 60.747 186.318 56.025 C 183.117 51.304 178.915 45.992 174.514 40.52 C 165.81 29.586 156.507 18.012 154.206 9.008 C 153.406 6.447 153.706 4.004 153.706 1.397 L 153.706 1.191 L 199.022 1.191 L 199.122 1.191 Z  M 150.205 1.191 L 150.205 1.41 C 150.105 4.033 149.905 6.427 150.505 8.908 C 150.905 10.699 151.605 12.7 152.506 14.81 L 152.706 15.1 L 119.194 15.1 L 119.094 14.96 L 118.193 11.979 L 92.484 11.979 L 92.484 11.919 C 88.983 8.258 87.782 4.847 88.382 1.358 L 88.382 1.191 L 150.005 1.191 L 150.205 1.191 Z  M 198.822 1.602 L 154.106 1.602 C 154.106 4.147 153.906 6.497 154.606 8.908 C 156.807 17.731 166.111 29.326 174.814 40.27 C 179.215 45.742 183.517 51.053 186.618 55.795 C 189.719 60.447 191.72 64.548 191.82 67.78 L 207.425 67.78 C 207.325 64.328 205.225 59.757 202.024 54.685 C 198.822 49.513 194.421 43.811 190.019 38.209 C 185.518 32.597 181.016 27.085 177.615 22.253 C 174.113 17.431 171.512 13.3 171.112 10.389 L 171.012 10.159 L 198.822 1.602 Z  M 149.805 1.602 L 88.783 1.602 C 88.282 4.877 89.383 8.058 92.684 11.569 L 118.493 11.569 L 118.493 11.709 L 119.494 14.7 L 152.005 14.7 C 151.205 12.68 150.505 10.749 150.105 9.008 L 150.105 8.998 C 149.505 6.507 149.705 4.131 149.805 1.602 Z  M 153.706 17.101 L 153.706 17.221 C 154.306 18.422 155.007 19.632 155.807 20.933 C 157.007 22.783 157.107 24.274 156.707 26.505 L 156.707 26.525 C 156.207 29.906 154.206 31.396 151.705 32.317 L 151.505 32.387 L 151.405 32.187 C 151.405 31.897 151.205 31.696 151.105 31.376 L 151.105 31.236 C 151.605 30.096 151.905 28.735 151.905 27.415 C 151.805 26.124 151.305 24.884 150.105 23.874 C 144.903 24.064 140.901 24.044 137.5 23.784 C 139.101 26.054 140.901 28.905 142.502 31.506 C 143.602 33.127 144.403 34.547 145.303 35.558 C 146.303 36.558 147.504 37.158 149.404 37.158 L 166.811 37.158 L 166.811 36.788 L 167.211 37.228 C 168.111 38.349 168.912 39.459 169.712 40.56 L 170.012 40.88 L 149.104 40.88 C 146.603 40.88 144.803 40.16 143.402 38.919 C 141.902 37.689 140.801 35.958 139.501 33.947 L 139.501 33.937 C 137.1 30.516 134.799 26.315 132.198 23.123 C 129.697 22.723 127.497 22.133 125.196 21.643 C 124.195 21.433 123.595 21.253 123.195 20.883 C 122.695 20.512 122.395 19.992 121.794 19.142 C 121.394 18.542 120.994 18.042 120.594 17.421 L 120.294 17.101 L 153.506 17.101 L 153.706 17.101 Z  M 153.406 17.511 L 121.094 17.511 C 121.494 17.971 121.794 18.412 122.095 18.912 C 122.695 19.772 122.995 20.252 123.395 20.562 C 123.795 20.873 124.295 21.043 125.296 21.243 C 127.597 21.743 129.797 22.353 132.298 22.753 L 132.398 22.763 L 132.498 22.833 C 135.099 26.074 137.4 30.296 139.801 33.707 L 139.801 33.717 C 141.101 35.738 142.202 37.439 143.602 38.619 C 145.003 39.799 146.603 40.47 149.104 40.47 L 169.112 40.47 C 168.411 39.509 167.711 38.529 166.911 37.569 L 149.404 37.569 C 147.404 37.569 146.103 36.898 145.003 35.838 C 144.003 34.768 143.302 33.337 142.202 31.736 L 142.202 31.726 C 140.501 29.005 138.601 25.984 136.9 23.674 L 136.6 23.313 L 137.1 23.353 C 140.601 23.654 144.703 23.664 150.205 23.463 L 150.305 23.443 L 150.405 23.493 C 151.705 24.594 152.205 26.004 152.306 27.405 C 152.306 28.775 152.005 30.156 151.605 31.316 C 151.605 31.496 151.705 31.666 151.805 31.837 C 154.006 30.946 155.807 29.606 156.307 26.445 C 156.707 24.254 156.607 22.933 155.507 21.153 C 154.706 19.882 154.006 18.692 153.406 17.511 L 153.406 17.511 Z " fill-rule="evenodd" fill="rgb(139,0,0)"/></g></svg>