<svg xmlns="http://www.w3.org/2000/svg" width="23.406" height="34.844" viewBox="0 0 23.406 34.844">
  <metadata><?xpacket begin="﻿" id="W5M0MpCehiHzreSzNTczkc9d"?>
<x:xmpmeta xmlns:x="adobe:ns:meta/" x:xmptk="Adobe XMP Core 5.6-c138 79.159824, 2016/09/14-01:09:01        ">
   <rdf:RDF xmlns:rdf="http://www.w3.org/1999/02/22-rdf-syntax-ns#">
      <rdf:Description rdf:about=""/>
   </rdf:RDF>
</x:xmpmeta>
                                                                                                    
                                                                                                    
                                                                                                    
                                                                                                    
                                                                                                    
                                                                                                    
                                                                                                    
                                                                                                    
                                                                                                    
                                                                                                    
                                                                                                    
                                                                                                    
                                                                                                    
                                                                                                    
                                                                                                    
                                                                                                    
                                                                                                    
                                                                                                    
                                                                                                    
                                                                                                    
                           
<?xpacket end="w"?></metadata>
<defs>
    <style>
      .cls-1 {
        fill: #0063f8;
        fill-rule: evenodd;
      }
    </style>
  </defs>
  <path id="Forma_1" data-name="Forma 1" class="cls-1" d="M723.96,732a11.78,11.78,0,0,0-11.709,11.824c0,2.619,1.528,6.6,4.807,12.538,2.238,4.05,4.465,7.47,4.559,7.614l1.61,2.464a0.872,0.872,0,0,0,1.465,0l1.61-2.464c0.093-.142,2.3-3.533,4.559-7.614,3.279-5.934,4.807-9.918,4.807-12.538A11.78,11.78,0,0,0,723.96,732Zm5.369,23.5c-2.224,4.024-4.4,7.361-4.492,7.5l-0.877,1.344L723.082,763c-0.092-.142-2.285-3.509-4.492-7.5-3.042-5.5-4.584-9.433-4.584-11.675a9.954,9.954,0,1,1,19.907,0C733.913,746.066,732.371,749.994,729.329,755.5Zm-5.369-18.305a6.556,6.556,0,1,0,6.491,6.556A6.531,6.531,0,0,0,723.96,737.194Zm0,11.339a4.784,4.784,0,1,1,4.737-4.783A4.766,4.766,0,0,1,723.96,748.533Z" transform="translate(-712.25 -732)"/>
</svg>
