<svg xmlns="http://www.w3.org/2000/svg" width="30.44" height="34.844" viewBox="0 0 30.44 34.844">
  <metadata><?xpacket begin="﻿" id="W5M0MpCehiHzreSzNTczkc9d"?>
<x:xmpmeta xmlns:x="adobe:ns:meta/" x:xmptk="Adobe XMP Core 5.6-c138 79.159824, 2016/09/14-01:09:01        ">
   <rdf:RDF xmlns:rdf="http://www.w3.org/1999/02/22-rdf-syntax-ns#">
      <rdf:Description rdf:about=""/>
   </rdf:RDF>
</x:xmpmeta>
                                                                                                    
                                                                                                    
                                                                                                    
                                                                                                    
                                                                                                    
                                                                                                    
                                                                                                    
                                                                                                    
                                                                                                    
                                                                                                    
                                                                                                    
                                                                                                    
                                                                                                    
                                                                                                    
                                                                                                    
                                                                                                    
                                                                                                    
                                                                                                    
                                                                                                    
                                                                                                    
                           
<?xpacket end="w"?></metadata>
<defs>
    <style>
      .cls-1 {
        fill: #0063f8;
        fill-rule: evenodd;
      }
    </style>
  </defs>
  <path id="Forma_1" data-name="Forma 1" class="cls-1" d="M1381.93,761.613a2.323,2.323,0,1,0,2.34,2.322A2.336,2.336,0,0,0,1381.93,761.613Zm0,3.484a1.162,1.162,0,1,1,1.17-1.162A1.173,1.173,0,0,1,1381.93,765.1Zm-1.76-29.033h2.34a0.581,0.581,0,1,0,0-1.161h-2.34A0.581,0.581,0,1,0,1380.17,736.064Zm4.1,0h0.58a0.581,0.581,0,1,0,0-1.161h-0.58A0.581,0.581,0,1,0,1384.27,736.064Zm18.73,4.065h-10.54v-4.41a2.568,2.568,0,0,0-2.58-2.558h-14.74a2.574,2.574,0,0,0-2.58,2.558v29.723a2.574,2.574,0,0,0,2.58,2.558h14.74a2.568,2.568,0,0,0,2.58-2.558V752.323H1403V740.129Zm-27.86-5.807h14.74a1.4,1.4,0,0,1,1.41,1.4v0.926h-17.56v-0.926A1.4,1.4,0,0,1,1375.14,734.322Zm14.74,32.517h-14.74a1.4,1.4,0,0,1-1.41-1.4v-4.41h17.56v4.41A1.4,1.4,0,0,1,1389.88,766.839Zm1.41-6.968h-17.56V737.806h17.56v2.323h-10.54v12.194h2.35v4.064l5.46-4.064h2.73v7.548Zm10.54-8.71h-13.66l-3.9,2.9v-2.9h-2.34V741.29h19.9v9.871Zm-16.98-5.806h5.86a0.581,0.581,0,0,0,0-1.162h-5.86A0.581,0.581,0,0,0,1384.85,745.355Zm-0.58,2.322a0.581,0.581,0,0,0,.58.581h14.05a0.581,0.581,0,1,0,0-1.161h-14.05A0.58,0.58,0,0,0,1384.27,747.677Z" transform="translate(-1372.56 -733.156)"/>
</svg>
