<svg xmlns="http://www.w3.org/2000/svg" width="35.12" height="30.188" viewBox="0 0 35.12 30.188">
  <metadata><?xpacket begin="﻿" id="W5M0MpCehiHzreSzNTczkc9d"?>
<x:xmpmeta xmlns:x="adobe:ns:meta/" x:xmptk="Adobe XMP Core 5.6-c138 79.159824, 2016/09/14-01:09:01        ">
   <rdf:RDF xmlns:rdf="http://www.w3.org/1999/02/22-rdf-syntax-ns#">
      <rdf:Description rdf:about=""/>
   </rdf:RDF>
</x:xmpmeta>
                                                                                                    
                                                                                                    
                                                                                                    
                                                                                                    
                                                                                                    
                                                                                                    
                                                                                                    
                                                                                                    
                                                                                                    
                                                                                                    
                                                                                                    
                                                                                                    
                                                                                                    
                                                                                                    
                                                                                                    
                                                                                                    
                                                                                                    
                                                                                                    
                                                                                                    
                                                                                                    
                           
<?xpacket end="w"?></metadata>
<defs>
    <style>
      .cls-1 {
        fill: #0063f8;
        fill-rule: evenodd;
      }
    </style>
  </defs>
  <path id="Forma_1" data-name="Forma 1" class="cls-1" d="M1073.5,737.07q-0.03-.048-0.06-0.093a0.784,0.784,0,0,0-.44-0.307h0l-0.04-.009h-0.01a0.733,0.733,0,0,0-.42.04l-33.52,12.746a0.838,0.838,0,0,0-.53.739,0.865,0.865,0,0,0,.43.809l6.84,3.773,2.38,11.4a0.9,0.9,0,0,0,.12.313,0.771,0.771,0,0,0,.11.126,0.708,0.708,0,0,0,.34.208,0.7,0.7,0,0,0,.21.03h0a0.8,0.8,0,0,0,.54-0.224l6.45-6.336,7.09,3.807a0.745,0.745,0,0,0,.64.035,0.821,0.821,0,0,0,.46-0.483l9.46-25.827,0.03-.111a0.985,0.985,0,0,0,.02-0.17A0.829,0.829,0,0,0,1073.5,737.07Zm-32.24,13.315,24.12-9.17-18.96,12.013Zm8.11,5.431h0v0h-0.01a1.009,1.009,0,0,0-.08.291l-0.59,4.959-1.35-6.462,14.62-9.263L1049.6,755.52A0.922,0.922,0,0,0,1049.37,755.816Zm0.6,7.983,0.75-6.3,3.67,1.969Zm12.95-1.643-6.78-3.643-0.03-.019-4.55-2.445,19.47-16.022Z" transform="translate(-1038.47 -736.656)"/>
</svg>
