<svg 
 xmlns="http://www.w3.org/2000/svg"
 xmlns:xlink="http://www.w3.org/1999/xlink"
 width="24.5px" height="27.5px">
<path fill-rule="evenodd"  stroke="rgb(255, 255, 255)" stroke-width="1px" stroke-linecap="butt" stroke-linejoin="miter" fill="none"
 d="M21.280,9.555 C20.892,9.317 20.382,9.434 20.140,9.816 C19.898,10.199 20.017,10.701 20.404,10.940 C21.307,11.495 21.845,12.452 21.845,13.500 C21.845,14.549 21.307,15.505 20.404,16.060 L6.834,24.402 C5.876,24.991 4.716,25.020 3.730,24.480 C2.743,23.940 2.154,22.954 2.154,21.842 L2.154,5.158 C2.154,4.045 2.743,3.059 3.730,2.519 C4.716,1.980 5.876,2.009 6.834,2.597 L14.734,7.454 C15.122,7.692 15.632,7.575 15.874,7.193 C16.115,6.811 15.997,6.308 15.609,6.069 L7.709,1.213 C6.234,0.306 4.447,0.261 2.927,1.093 C1.407,1.925 0.500,3.444 0.500,5.158 L0.500,21.842 C0.500,23.556 1.407,25.075 2.927,25.906 C3.651,26.302 4.435,26.500 5.218,26.500 C6.078,26.500 6.937,26.261 7.709,25.786 L21.280,17.444 C22.670,16.589 23.500,15.115 23.500,13.500 C23.500,11.884 22.670,10.410 21.280,9.555 Z"/>
</svg>